<svg xmlns="http://www.w3.org/2000/svg" width="19.988" height="17.49" viewBox="0 0 19.988 17.49">
  <path id="Icon_awesome-users" data-name="Icon awesome-users" d="M25.24,9.746a2.5,2.5,0,1,0-2.5-2.5A2.5,2.5,0,0,0,25.24,9.746Zm1.249,1.249h-2.5a2.491,2.491,0,0,0-1.761.726,5.71,5.71,0,0,1,2.932,4.271h2.577a1.248,1.248,0,0,0,1.249-1.249V13.493A2.5,2.5,0,0,0,26.489,10.995Zm-9.994,0a4.372,4.372,0,1,0-4.372-4.372A4.37,4.37,0,0,0,16.5,10.995Zm3,1.249H19.17a6.037,6.037,0,0,1-5.348,0H13.5a4.5,4.5,0,0,0-4.5,4.5v1.124a1.874,1.874,0,0,0,1.874,1.874H22.117a1.874,1.874,0,0,0,1.874-1.874V16.741A4.5,4.5,0,0,0,19.494,12.244Z" transform="translate(-9 -2.25)" fill="#fff"/>
</svg>
