<svg xmlns="http://www.w3.org/2000/svg" width="17.542" height="19.358" viewBox="0 0 17.542 19.358">
  <g id="Group_3767" data-name="Group 3767" transform="translate(-210.4 -278.4)" opacity="0.8">
    <path id="Path_5541" data-name="Path 5541" d="M211.093,286.4h16.181" transform="translate(-0.009 -0.682)" fill="none" stroke="#130f26" stroke-linecap="round" stroke-linejoin="round" stroke-width="1.2"/>
    <path id="Path_5542" data-name="Path 5542" d="M224.442,290.31h.008" transform="translate(-1.238 -1.042)" fill="none" stroke="#130f26" stroke-linecap="round" stroke-linejoin="round" stroke-width="1.2"/>
    <path id="Path_5543" data-name="Path 5543" d="M220.005,290.31h.008" transform="translate(-0.829 -1.042)" fill="none" stroke="#130f26" stroke-linecap="round" stroke-linejoin="round" stroke-width="1.2"/>
    <path id="Path_5544" data-name="Path 5544" d="M215.558,290.31h.008" transform="translate(-0.42 -1.042)" fill="none" stroke="#130f26" stroke-linecap="round" stroke-linejoin="round" stroke-width="1.2"/>
    <path id="Path_5545" data-name="Path 5545" d="M224.442,294.2h.008" transform="translate(-1.238 -1.4)" fill="none" stroke="#130f26" stroke-linecap="round" stroke-linejoin="round" stroke-width="1.2"/>
    <path id="Path_5546" data-name="Path 5546" d="M220.005,294.2h.008" transform="translate(-0.829 -1.4)" fill="none" stroke="#130f26" stroke-linecap="round" stroke-linejoin="round" stroke-width="1.2"/>
    <path id="Path_5547" data-name="Path 5547" d="M215.558,294.2h.008" transform="translate(-0.42 -1.4)" fill="none" stroke="#130f26" stroke-linecap="round" stroke-linejoin="round" stroke-width="1.2"/>
    <path id="Path_5548" data-name="Path 5548" d="M224.044,279v2.988" transform="translate(-1.202)" fill="none" stroke="#130f26" stroke-linecap="round" stroke-linejoin="round" stroke-width="1.2"/>
    <path id="Path_5549" data-name="Path 5549" d="M215.965,279v2.988" transform="translate(-0.457)" fill="none" stroke="#130f26" stroke-linecap="round" stroke-linejoin="round" stroke-width="1.2"/>
    <path id="Path_5550" data-name="Path 5550" d="M223.019,280.579h-7.687c-2.666,0-4.332,1.485-4.332,4.215v8.216c0,2.773,1.665,4.292,4.332,4.292h7.679c2.675,0,4.332-1.493,4.332-4.223v-8.285C227.35,282.064,225.693,280.579,223.019,280.579Z" transform="translate(0 -0.145)" fill="none" stroke="#130f26" stroke-linecap="round" stroke-linejoin="round" stroke-width="1.2" fill-rule="evenodd"/>
  </g>
</svg>
