<svg xmlns="http://www.w3.org/2000/svg" width="20" height="18" viewBox="0 0 20 18">
  <path id="Path_3674" data-name="Path 3674" d="M280.939,280A5.056,5.056,0,0,1,286,285.05v7.9a5.058,5.058,0,0,1-5.061,5.05H271.06a5.057,5.057,0,0,1-5.06-5.05v-7.9a5.05,5.05,0,0,1,5.06-5.05Zm1.591,6.54.08-.08a.773.773,0,0,0-.011-1,.841.841,0,0,0-.529-.26.76.76,0,0,0-.561.2L277,289a1.566,1.566,0,0,1-2,0l-4.5-3.6a.765.765,0,0,0-1.071,1.07l.131.13,4.55,3.55a3.149,3.149,0,0,0,3.909,0Z" transform="translate(-266 -280)" fill="#130f26" opacity="0.7"/>
</svg>
