<svg width="20" height="17" viewBox="0 0 20 17" fill="none" xmlns="http://www.w3.org/2000/svg">
<path fill-rule="evenodd" clip-rule="evenodd" d="M9.99691 5.64112C9.52015 5.64131 9.05414 5.78285 8.6578 6.04785C8.26147 6.31285 7.95259 6.68943 7.77023 7.12995C7.58787 7.57046 7.54021 8.05514 7.63327 8.52274C7.72633 8.99033 7.95593 9.41984 8.29306 9.75696C8.63018 10.0941 9.05971 10.3237 9.52731 10.4168C9.9949 10.5098 10.4796 10.4621 10.9201 10.2798C11.3606 10.0974 11.7372 9.78855 12.0022 9.39221C12.2672 8.99588 12.4087 8.5299 12.4089 8.05313C12.409 7.73635 12.3467 7.42264 12.2256 7.12995C12.1044 6.83725 11.9267 6.57129 11.7027 6.34729C11.4787 6.12329 11.2128 5.94563 10.9201 5.82447C10.6274 5.7033 10.3137 5.64098 9.99691 5.64112ZM9.99691 11.9631C9.22339 11.9629 8.4673 11.7333 7.82425 11.3034C7.1812 10.8735 6.68008 10.2626 6.38424 9.54788C6.08841 8.83317 6.01116 8.04677 6.16226 7.28815C6.31336 6.52953 6.68602 5.83274 7.23312 5.28592C7.78022 4.7391 8.47717 4.36678 9.23587 4.21607C9.99457 4.06535 10.7809 4.14301 11.4955 4.43921C12.2101 4.73541 12.8208 5.23686 13.2503 5.88013C13.6799 6.5234 13.9091 7.27961 13.9089 8.05313C13.9088 8.56673 13.8075 9.07526 13.6108 9.54972C13.4141 10.0242 13.126 10.4553 12.7627 10.8183C12.3995 11.1814 11.9682 11.4694 11.4937 11.6658C11.0191 11.8622 10.5105 11.9633 9.99691 11.9631Z" fill="black"/>
<path fill-rule="evenodd" clip-rule="evenodd" d="M1.56696 8.05301C3.42696 12.162 6.55995 14.605 9.99695 14.606C13.4339 14.607 16.5669 12.162 18.4269 8.05301C16.5669 3.94501 13.4339 1.50201 9.99695 1.50101C6.55995 1.50001 3.42696 3.94501 1.56696 8.05301ZM9.99695 16.106C5.86095 16.106 2.14697 13.206 0.0609741 8.349C0.0209206 8.25546 0.000244141 8.15477 0.000244141 8.05301C0.000244141 7.95125 0.0209206 7.85053 0.0609741 7.75699C2.14397 2.89999 5.85895 0 9.99695 0C14.1329 0 17.8469 2.90001 19.9329 7.75601C19.9735 7.84942 19.9944 7.95016 19.9944 8.052C19.9944 8.15384 19.9735 8.25458 19.9329 8.34799C17.8479 13.203 14.1329 16.102 9.99695 16.105V16.106Z" fill="black"/>
</svg>
