<svg width="21" height="19" viewBox="0 0 21 19" fill="none" xmlns="http://www.w3.org/2000/svg">
<path fill-rule="evenodd" clip-rule="evenodd" d="M7.76093 12.6169C7.66242 12.6172 7.56486 12.5979 7.47388 12.5601C7.3829 12.5223 7.30034 12.4669 7.23096 12.3969C6.86812 12.0336 6.58039 11.6023 6.38422 11.1277C6.18805 10.6532 6.08728 10.1446 6.08765 9.6311C6.0884 8.59403 6.50107 7.59974 7.23493 6.86694C7.96878 6.13415 8.96372 5.72288 10.0008 5.72363C11.0379 5.72438 12.0322 6.13709 12.765 6.87094C12.8341 6.94113 12.8887 7.02426 12.9257 7.11557C12.9627 7.20688 12.9814 7.30458 12.9807 7.40311C12.9799 7.50163 12.9598 7.59902 12.9214 7.68976C12.883 7.7805 12.8272 7.86281 12.757 7.93195C12.6868 8.00109 12.6036 8.05573 12.5123 8.09274C12.421 8.12976 12.3233 8.14842 12.2248 8.14768C12.1263 8.14693 12.0289 8.1268 11.9381 8.08841C11.8474 8.05002 11.7651 7.99414 11.6959 7.92395C11.4729 7.70069 11.2078 7.52387 10.916 7.40372C10.6242 7.28356 10.3115 7.22245 9.99591 7.22394C9.35548 7.225 8.74169 7.4801 8.28912 7.93323C7.83656 8.38636 7.58217 9.0005 7.58191 9.64093C7.58119 9.95683 7.64315 10.2698 7.76416 10.5616C7.88517 10.8534 8.06285 11.1183 8.28693 11.3409C8.39168 11.4458 8.463 11.5794 8.49188 11.7248C8.52077 11.8702 8.50593 12.0209 8.44922 12.1579C8.39251 12.2948 8.2965 12.4119 8.17328 12.4943C8.05006 12.5767 7.9052 12.6208 7.75696 12.6209L7.76093 12.6169Z" fill="black"/>
<path fill-rule="evenodd" clip-rule="evenodd" d="M10.567 13.4911C10.3798 13.4909 10.1993 13.4208 10.0612 13.2943C9.92309 13.1679 9.83728 12.9944 9.82061 12.8079C9.80394 12.6214 9.85761 12.4354 9.97112 12.2865C10.0846 12.1375 10.2498 12.0365 10.434 12.0031C10.9145 11.9143 11.3566 11.6814 11.7016 11.3355C12.0467 10.9895 12.2784 10.5468 12.366 10.0661C12.3835 9.96913 12.4198 9.87654 12.4731 9.79362C12.5263 9.71071 12.5954 9.63909 12.6763 9.58287C12.7572 9.52664 12.8485 9.4869 12.9448 9.46592C13.041 9.44495 13.1405 9.44315 13.2375 9.46061C13.3345 9.47808 13.4271 9.51448 13.51 9.56773C13.5929 9.62098 13.6645 9.69002 13.7208 9.77095C13.777 9.85187 13.8167 9.9431 13.8377 10.0394C13.8587 10.1357 13.8605 10.2351 13.843 10.3321C13.6999 11.1131 13.3229 11.8322 12.762 12.3942C12.201 12.9562 11.4827 13.3345 10.702 13.4791C10.6575 13.487 10.6123 13.4911 10.567 13.4911Z" fill="black"/>
<path fill-rule="evenodd" clip-rule="evenodd" d="M4.65503 15.7231C4.48716 15.7229 4.32417 15.6666 4.19202 15.5631C2.3694 14.0587 0.950038 12.1242 0.0620117 9.93406C0.0209445 9.84061 -0.000244141 9.73967 -0.000244141 9.63759C-0.000244141 9.53551 0.0209445 9.43453 0.0620117 9.34108C0.959923 7.14088 2.38835 5.19711 4.21997 3.68309C5.85591 2.34855 7.90337 1.62137 10.0146 1.62501C12.1258 1.62866 14.1707 2.3629 15.802 3.70308C15.9579 3.82667 16.0584 4.00715 16.0813 4.20482C16.1042 4.40248 16.0476 4.60112 15.924 4.75706C15.8004 4.91301 15.6199 5.01348 15.4222 5.03636C15.2246 5.05924 15.0259 5.00266 14.87 4.87907C13.5052 3.74472 11.7874 3.1222 10.0128 3.11891C8.23812 3.11562 6.51794 3.73177 5.14899 4.86107C3.59463 6.14778 2.36828 7.78544 1.57098 9.63908C2.35837 11.4807 3.57493 13.1073 5.11902 14.3831C5.24181 14.4794 5.33145 14.6117 5.37549 14.7615C5.41953 14.9112 5.41576 15.071 5.36469 15.2185C5.31361 15.366 5.21779 15.4939 5.09058 15.5843C4.96336 15.6748 4.81112 15.7233 4.65503 15.7231Z" fill="black"/>
<path fill-rule="evenodd" clip-rule="evenodd" d="M9.99996 17.6892C9.05874 17.6884 8.1238 17.5361 7.23098 17.2382C7.13747 17.2071 7.05099 17.1578 6.97652 17.0933C6.90205 17.0288 6.841 16.9502 6.79689 16.8621C6.75279 16.7739 6.72647 16.678 6.71944 16.5797C6.71241 16.4814 6.72482 16.3827 6.75594 16.2892C6.78706 16.1957 6.8363 16.1092 6.90084 16.0348C6.96537 15.9603 7.04398 15.8992 7.1321 15.8551C7.22022 15.811 7.31615 15.7847 7.41445 15.7777C7.51274 15.7707 7.61147 15.7831 7.70497 15.8142C8.44479 16.0619 9.21976 16.1886 9.99996 16.1892C13.428 16.1892 16.5609 13.7472 18.4299 9.63617C18.0015 8.68386 17.4714 7.78062 16.849 6.94217C16.7296 6.78304 16.6784 6.58303 16.7065 6.38611C16.7346 6.1892 16.8399 6.01153 16.999 5.89219C17.1581 5.77284 17.3581 5.7216 17.555 5.74973C17.7519 5.77786 17.9296 5.88305 18.049 6.04218C18.8071 7.06384 19.4418 8.17154 19.94 9.3422C19.9817 9.4367 20.0033 9.53886 20.0033 9.64218C20.0033 9.7455 19.9817 9.84767 19.94 9.94217C17.842 14.7902 14.127 17.6892 9.99996 17.6892Z" fill="black"/>
<path fill-rule="evenodd" clip-rule="evenodd" d="M2.11307 18.2729C1.96483 18.2728 1.81997 18.2287 1.69675 18.1463C1.57354 18.0639 1.47752 17.9468 1.42081 17.8099C1.3641 17.6729 1.34926 17.5222 1.37815 17.3768C1.40703 17.2314 1.47835 17.0978 1.5831 16.9929L17.3571 1.21893C17.4263 1.14733 17.5091 1.09025 17.6006 1.05099C17.6921 1.01173 17.7906 0.991078 17.8902 0.99026C17.9898 0.989442 18.0885 1.00844 18.1806 1.0462C18.2728 1.08395 18.3565 1.13969 18.4269 1.21014C18.4973 1.28059 18.5529 1.36435 18.5906 1.45654C18.6283 1.54873 18.6472 1.64751 18.6463 1.7471C18.6454 1.84668 18.6247 1.94507 18.5853 2.03655C18.546 2.12804 18.4888 2.21078 18.4171 2.27993L2.6431 18.0529C2.57372 18.1229 2.49116 18.1783 2.40018 18.2161C2.3092 18.2539 2.21158 18.2732 2.11307 18.2729Z" fill="black"/>
</svg>
