<svg xmlns="http://www.w3.org/2000/svg" xmlns:xlink="http://www.w3.org/1999/xlink" width="64.593" height="58" viewBox="0 0 64.593 58">
  <defs>
    <filter id="Path_168" x="0" y="16.689" width="64.593" height="26.622" filterUnits="userSpaceOnUse">
      <feOffset dy="1" input="SourceAlpha"/>
      <feGaussianBlur stdDeviation="3" result="blur"/>
      <feFlood flood-opacity="0.102"/>
      <feComposite operator="in" in2="blur"/>
      <feComposite in="SourceGraphic"/>
    </filter>
  </defs>
  <g id="Group_6678" data-name="Group 6678" transform="translate(-288.703 -372)">
    <rect id="Rectangle_1662" data-name="Rectangle 1662" width="58" height="58" rx="29" transform="translate(292 372)" fill="#ae4541"/>
    <g transform="matrix(1, 0, 0, 1, 288.7, 372)" filter="url(#Path_168)">
      <path id="Path_168-2" data-name="Path 168" d="M26.421,87.174a1.479,1.479,0,0,0,.324.241,1.758,1.758,0,0,0,1.324.1,3.168,3.168,0,0,0,.568-.22,5.041,5.041,0,0,0,.594-.348,6.716,6.716,0,0,0,.607-.467,5.013,5.013,0,0,0,.444.585,2.138,2.138,0,0,0,.374.338,1.068,1.068,0,0,0,.617.212,1.014,1.014,0,0,0,.3-.043,1.89,1.89,0,0,0,.7-.418l.834-.727a.185.185,0,0,0,.037-.029l.1-.087a.449.449,0,0,1,.077-.057c.038-.014.052.017.08.047a.567.567,0,0,1,.044.062c.019.031.044.074.068.118l.444.745a.746.746,0,0,0,.119.153.67.67,0,0,0,.826.133,1.318,1.318,0,0,0,.386-.339l.6-.727c.05-.06.1-.12.136-.157a.357.357,0,0,1,.118-.091.188.188,0,0,1,.214.041.482.482,0,0,1,.069.082c.038.053.1.141.154.232l.337.5a2.311,2.311,0,0,0,.22.274.992.992,0,0,0,.594.325,1.894,1.894,0,0,0,.3.022,3.541,3.541,0,0,0,.394-.015,2.254,2.254,0,0,0,.46-.1c.256-.074.678-.205,1.1-.345a3.621,3.621,0,0,0,.539.3,1.684,1.684,0,0,0,.474.136,4.1,4.1,0,0,0,.62.039,6.48,6.48,0,0,0,1.194-.118,6.264,6.264,0,0,0,1.095-.323,7.505,7.505,0,0,0,1.029-.5,7.731,7.731,0,0,0,.64.566,1.6,1.6,0,0,0,.375.229,1.321,1.321,0,0,0,.325.1,3.122,3.122,0,0,0,.433.032,3.2,3.2,0,0,0,.4-.02,4.583,4.583,0,0,0,1.315-.348,3,3,0,0,0,.337-.173,1.568,1.568,0,0,0,.207-.145.677.677,0,0,0,.1-.105.245.245,0,0,0,.021-.286.27.27,0,0,0-.106-.107.429.429,0,0,0-.15-.048,1.008,1.008,0,0,0-.136-.009c-.059,0-.136,0-.263.01s-.3.024-.425.033-.187.012-.252.011a1.568,1.568,0,0,1-.8-.228,1.081,1.081,0,0,1-.14-.1c-.171-.148-.23-.305-.142-.435a.353.353,0,0,1,.073-.075c.05-.042.136-.109.224-.172l.993-.763-.444-.55-1.4.923-.6-.958h-2.2L44.457,86.2a4.568,4.568,0,0,1-.653.279,3.445,3.445,0,0,1-1.1.165,2.025,2.025,0,0,1-.223-.012,1.275,1.275,0,0,1-.223-.043,2.9,2.9,0,0,1-.3-.1q.364-.23.71-.487a1.54,1.54,0,0,0,.272-.246.911.911,0,0,0,.183-.308,1.27,1.27,0,0,0,.059-.413,1.125,1.125,0,0,0-.035-.285.954.954,0,0,0-.276-.465,1.084,1.084,0,0,0-.248-.172,1.39,1.39,0,0,0-.331-.118,1.9,1.9,0,0,0-.427-.042,2.9,2.9,0,0,0-.528.054,3.066,3.066,0,0,0-.542.159,2.906,2.906,0,0,0-.483.247,2.507,2.507,0,0,0-.384.3,1.755,1.755,0,0,0-.588,1.45.993.993,0,0,0,.027.154c.016.066.043.155.073.242a3.008,3.008,0,0,1-.328-.015.963.963,0,0,1-.191-.038.7.7,0,0,1-.342-.231,1.468,1.468,0,0,1-.146-.2c-.062-.1-.14-.25-.216-.4l-.426-.834c-.058-.113-.119-.225-.168-.3a1.129,1.129,0,0,0-.121-.164.592.592,0,0,0-.491-.223,1.241,1.241,0,0,0-.236.019.682.682,0,0,0-.178.058,1.049,1.049,0,0,0-.172.107,1.915,1.915,0,0,0-.332.336c-.19.225-.494.611-.785,1.005l-.426-.922a1.45,1.45,0,0,0-.161-.273.9.9,0,0,0-.189-.186.8.8,0,0,0-.8-.07,1.038,1.038,0,0,0-.132.071,1.458,1.458,0,0,0-.154.111,2.049,2.049,0,0,0-.2.186,4.062,4.062,0,0,0-.317.385c-.141.19-.328.46-.45.62a1.375,1.375,0,0,1-.218.248.365.365,0,0,1-.236.114.238.238,0,0,1-.179-.091.563.563,0,0,1-.057-.078.918.918,0,0,1-.077-.151c-.032-.075-.071-.183-.129-.362s-.13-.427-.185-.586a1.568,1.568,0,0,0-.119-.279,1.237,1.237,0,0,0-.077-.124.62.62,0,0,0-.064-.078.378.378,0,0,0-.483-.081.742.742,0,0,0-.119.082,1.016,1.016,0,0,0-.209.243c-.108.156-.267.418-.4.613a4.167,4.167,0,0,1-.308.419,1.814,1.814,0,0,1-.21.211,1.249,1.249,0,0,1-.663.305,1.63,1.63,0,0,1-.379,0,1.013,1.013,0,0,1-.161-.031.668.668,0,0,1-.338-.214,1.4,1.4,0,0,1-.123-.169,19,19,0,0,0,1.269-1.751,4.642,4.642,0,0,0,.5-1.027,4.708,4.708,0,0,0,.193-.73,3.855,3.855,0,0,0,.057-.64,1.812,1.812,0,0,0-.052-.466,1.4,1.4,0,0,0-.152-.372,1.175,1.175,0,0,0-.239-.289,1.007,1.007,0,0,0-.3-.181.962.962,0,0,0-.33-.062,1.515,1.515,0,0,0-.371.043,2.069,2.069,0,0,0-.409.144,2.647,2.647,0,0,0-.452.276,3.662,3.662,0,0,0-.5.452,5.06,5.06,0,0,0-.517.671,5.538,5.538,0,0,0-.458.859,3.937,3.937,0,0,0-.258.934,7.422,7.422,0,0,0-.083,1.179c0,.18.006.36.018.523s.029.309.05.441.044.25.073.367a2.343,2.343,0,0,1-.258.184,1.362,1.362,0,0,1-.213.107.937.937,0,0,1-.168.05.827.827,0,0,1-.132.015.4.4,0,0,1-.23-.06.471.471,0,0,1-.131-.126A.78.78,0,0,1,24.59,86a1.428,1.428,0,0,1-.074-.176L23.9,84l-1.9.461.39,1.472c-.115.053-.232.1-.308.13a.7.7,0,0,1-.139.04.356.356,0,0,1-.184-.01.228.228,0,0,1-.109-.09.558.558,0,0,1-.061-.114c-.032-.071-.079-.191-.123-.311l-.373-.922a1.264,1.264,0,0,0-.106-.2.635.635,0,0,0-.222-.223.5.5,0,0,0-.131-.052.685.685,0,0,0-.174-.018,1.142,1.142,0,0,0-.231.027,1.31,1.31,0,0,0-.264.091,2.313,2.313,0,0,0-.383.227q-.321.229-.619.488a4.771,4.771,0,0,0-.438-.494,1.717,1.717,0,0,0-.632-.407,1.976,1.976,0,0,0-.687-.11,2.217,2.217,0,0,0-.85.149,1.422,1.422,0,0,0-.6.464,1.815,1.815,0,0,0-.144.223,2.544,2.544,0,0,0-.176.4c-.068.19-.147.455-.2.617a1.033,1.033,0,0,1-.126.269.382.382,0,0,1-.354.2.5.5,0,0,1-.384-.159.892.892,0,0,1-.094-.118,1.731,1.731,0,0,1-.132-.235q-.109-.228-.2-.464l-.585-1.508a2.686,2.686,0,0,0-.158-.343,1.19,1.19,0,0,0-.16-.223.661.661,0,0,0-.519-.232,1.106,1.106,0,0,0-.2.017.754.754,0,0,0-.31.131,1.386,1.386,0,0,0-.17.146,2.641,2.641,0,0,0-.329.411c-.183.261-.469.7-.742,1.14L9.9,82.155q-.048-.153-.11-.3a1.432,1.432,0,0,0-.1-.2.953.953,0,0,0-.091-.126.628.628,0,0,0-.518-.227,1.038,1.038,0,0,0-.141.01.512.512,0,0,0-.286.132.793.793,0,0,0-.086.1,1.125,1.125,0,0,0-.131.225c-.064.133-.154.349-.239.566L7.235,84.8,6.029,80.221a2.863,2.863,0,0,0-.161-.458,1.559,1.559,0,0,0-.193-.321,1.04,1.04,0,0,0-.215-.206.863.863,0,0,0-.255-.125,1.17,1.17,0,0,0-.981.162,1.563,1.563,0,0,0-.318.291,2.827,2.827,0,0,0-.34.523,7,7,0,0,0-.64,1.867,5.037,5.037,0,0,0-.09.91,1.132,1.132,0,0,0,.007.129.368.368,0,0,0,.11.246.347.347,0,0,0,.274.065.365.365,0,0,0,.239-.158.611.611,0,0,0,.047-.079,1.365,1.365,0,0,0,.114-.36c.024-.128.052-.321.078-.5s.051-.353.072-.462a.918.918,0,0,1,.054-.194.711.711,0,0,1,.04-.084.288.288,0,0,1,.074-.087.187.187,0,0,1,.116-.039.109.109,0,0,1,.11.056.45.45,0,0,1,.019.041,1.035,1.035,0,0,1,.044.144c.026.1.068.275.11.451l1.029,4.347a3.579,3.579,0,0,0,.164.519,1.714,1.714,0,0,0,.187.348,1.025,1.025,0,0,0,.2.211.819.819,0,0,0,.695.143.859.859,0,0,0,.355-.177,1.4,1.4,0,0,0,.188-.185,2.236,2.236,0,0,0,.222-.314c.082-.137.174-.313.251-.47s.149-.315.218-.475c.079-.18.174-.4.266-.6s.18-.38.271-.558l.04.107c.014.039.03.082.117.335s.246.714.36,1.03a6.61,6.61,0,0,0,.248.623,2.116,2.116,0,0,0,.186.321.88.88,0,0,0,.5.383.761.761,0,0,0,.466-.032.981.981,0,0,0,.306-.2,1.986,1.986,0,0,0,.191-.208,2.854,2.854,0,0,0,.308-.48c.149-.275.363-.71.56-1.151l.532,1.224a1.758,1.758,0,0,0,.237.4,1.32,1.32,0,0,0,.3.275,1.239,1.239,0,0,0,.353.162,1.463,1.463,0,0,0,.406.054,2.288,2.288,0,0,0,.582-.1,3.966,3.966,0,0,0,.658-.269,5.313,5.313,0,0,0,.676-.413,4.65,4.65,0,0,0,.409.38,1.7,1.7,0,0,0,.893.393,3.618,3.618,0,0,0,.369.025,2.383,2.383,0,0,0,.259-.008,1.666,1.666,0,0,0,1.214-.586,1.465,1.465,0,0,0,.175-.249c.068-.119.148-.287.218-.434s.126-.273.168-.348a.34.34,0,0,1,.092-.118.2.2,0,0,1,.24-.015.357.357,0,0,1,.066.05.589.589,0,0,1,.091.112,2.745,2.745,0,0,1,.166.307c.079.162.188.4.268.555a1.625,1.625,0,0,0,.18.285,1.71,1.71,0,0,0,.128.147.9.9,0,0,0,.671.285,1.764,1.764,0,0,0,.721-.141,1.975,1.975,0,0,0,.43-.252,6.956,6.956,0,0,0,.658-.565q.227.28.478.539a1.8,1.8,0,0,0,.277.24.928.928,0,0,0,.368.161,1.087,1.087,0,0,0,.207.018,2.008,2.008,0,0,0,.533-.1,5.511,5.511,0,0,0,1.445-.737,1.95,1.95,0,0,0,.283.354Zm1.915-6.116a.18.18,0,0,1,.118.084.391.391,0,0,1,.046.123.946.946,0,0,1,.018.124c0,.055.008.127.008.2a4.077,4.077,0,0,1-.058.565q-.053.308-.135.61a3.834,3.834,0,0,1-.179.515,8.544,8.544,0,0,1-.56,1.083,2.383,2.383,0,0,1-.161.233.847.847,0,0,1-.083.093c-.056.049-.089.075-.125.048a.167.167,0,0,1-.033-.07q-.01-.038-.017-.077a1.659,1.659,0,0,1-.02-.182q-.011-.194-.014-.388a4.805,4.805,0,0,1,.077-.7c.048-.266.12-.583.193-.844a5.619,5.619,0,0,1,.214-.63,3.2,3.2,0,0,1,.178-.368,1.549,1.549,0,0,1,.137-.2.477.477,0,0,1,.354-.217l.042,0Zm12.6,4.347a.908.908,0,0,1,.2-.39.644.644,0,0,1,.62-.239.44.44,0,0,1,.1.038.348.348,0,0,1,.142.5.76.76,0,0,1-.066.121,1.23,1.23,0,0,1-.119.15,2.125,2.125,0,0,1-.242.223c-.121.1-.293.224-.47.343a.946.946,0,0,1-.178-.359.908.908,0,0,1,.008-.383Zm-23.1-.313a.552.552,0,0,1,.359.693.53.53,0,0,1-.195.275.557.557,0,0,1-.5.078.577.577,0,0,1-.369-.372.525.525,0,0,1,.208-.6.592.592,0,0,1,.5-.071Zm13.019-3.5a1.022,1.022,0,0,0-.822.42.957.957,0,0,0-.14.867,1.015,1.015,0,0,0,.145.28,1.053,1.053,0,0,0,.233.229.994.994,0,1,0,.584-1.8Zm18.1,3.182a.689.689,0,0,0,.353-.259.709.709,0,0,0,.095-.617.686.686,0,0,0-.25-.35.7.7,0,0,0-1.085.774.687.687,0,0,0,.25.352.707.707,0,0,0,.637.1Zm-.753-.849a.586.586,0,0,1,.079-.163.552.552,0,0,1,.125-.128.553.553,0,0,1,.783.128.618.618,0,0,1,.079.531.553.553,0,0,1-.707.372.552.552,0,0,1-.281-.208.622.622,0,0,1-.079-.532Zm.528.238.21.349h.135l-.227-.355a.227.227,0,0,0,.181-.107.259.259,0,0,0-.009-.252c-.084-.1-.15-.086-.246-.093h-.3v.806h.121V84.16h.138Zm-.139-.353h.164c.057,0,.14,0,.168.079a.129.129,0,0,1-.046.147.149.149,0,0,1-.064.019c-.059.007-.148,0-.222,0v-.25Z" transform="translate(6.16 -54.38)" fill="#fff" fill-rule="evenodd"/>
    </g>
  </g>
</svg>
