<svg xmlns="http://www.w3.org/2000/svg" width="32.102" height="28.09" viewBox="0 0 32.102 28.09">
  <path id="ic_image" d="M32.663,5.862l0,0v24.07l0,0H4.581l0,0V5.866l0,0Zm0-2.006H4.577A2.012,2.012,0,0,0,2.571,5.862V29.939a2.012,2.012,0,0,0,2.006,2.006h28.09a2.012,2.012,0,0,0,2.006-2.006V5.862a2.012,2.012,0,0,0-2.006-2.006Zm-4.013,7.022a3.01,3.01,0,1,1-3.01-3.01,3.01,3.01,0,0,1,3.01,3.01ZM30.66,27.933H6.583V23.92l7.022-12.038,8.026,10.032h2.006l7.022-6.019Z" transform="translate(-2.571 -3.856)" opacity="0.2"/>
</svg>
