<svg xmlns="http://www.w3.org/2000/svg" xmlns:xlink="http://www.w3.org/1999/xlink" width="74.229" height="70" viewBox="0 0 74.229 70">
  <defs>
    <filter id="Path_168" x="0" y="21.797" width="74.229" height="28.406" filterUnits="userSpaceOnUse">
      <feOffset dy="1" input="SourceAlpha"/>
      <feGaussianBlur stdDeviation="3" result="blur"/>
      <feFlood flood-opacity="0.102"/>
      <feComposite operator="in" in2="blur"/>
      <feComposite in="SourceGraphic"/>
    </filter>
  </defs>
  <g id="Group_3753" data-name="Group 3753" transform="translate(-289.885 -372)">
    <rect id="Rectangle_1662" data-name="Rectangle 1662" width="70" height="70" rx="29" transform="translate(292 372)" fill="#ae4541"/>
    <g transform="matrix(1, 0, 0, 1, 289.88, 372)" filter="url(#Path_168)">
      <path id="Path_168-2" data-name="Path 168" d="M31.3,88.851a1.786,1.786,0,0,0,.39.29,2.121,2.121,0,0,0,1.6.125A3.823,3.823,0,0,0,33.973,89a6.086,6.086,0,0,0,.717-.42,8.106,8.106,0,0,0,.733-.563,6.052,6.052,0,0,0,.535.706,2.581,2.581,0,0,0,.451.408,1.288,1.288,0,0,0,.744.256,1.225,1.225,0,0,0,.356-.052,2.28,2.28,0,0,0,.846-.5l1.006-.878a.222.222,0,0,0,.045-.035l.123-.105a.543.543,0,0,1,.093-.069c.046-.017.062.02.1.056a.682.682,0,0,1,.054.075c.023.037.053.089.082.142l.535.9a.9.9,0,0,0,.143.184.809.809,0,0,0,1,.161A1.591,1.591,0,0,0,42,88.852l.729-.878c.06-.073.121-.145.164-.19a.431.431,0,0,1,.142-.11.227.227,0,0,1,.259.049.582.582,0,0,1,.084.1c.046.064.118.171.185.28l.407.6a2.787,2.787,0,0,0,.266.331,1.2,1.2,0,0,0,.717.392,2.284,2.284,0,0,0,.366.027,4.27,4.27,0,0,0,.476-.018,2.719,2.719,0,0,0,.555-.123c.309-.089.818-.248,1.324-.416a4.371,4.371,0,0,0,.65.366,2.032,2.032,0,0,0,.572.164,4.944,4.944,0,0,0,.748.047,7.82,7.82,0,0,0,1.441-.143,7.56,7.56,0,0,0,1.321-.39,9.059,9.059,0,0,0,1.242-.6,9.33,9.33,0,0,0,.772.683,1.933,1.933,0,0,0,.453.276,1.594,1.594,0,0,0,.392.115,3.769,3.769,0,0,0,.522.039,3.867,3.867,0,0,0,.478-.024,5.532,5.532,0,0,0,1.587-.42,3.624,3.624,0,0,0,.407-.208,1.893,1.893,0,0,0,.25-.175.817.817,0,0,0,.124-.127.3.3,0,0,0,.026-.345.326.326,0,0,0-.127-.13.518.518,0,0,0-.181-.058,1.214,1.214,0,0,0-.164-.011c-.072,0-.164,0-.317.012s-.366.029-.512.04-.226.014-.3.013a1.892,1.892,0,0,1-.962-.276,1.3,1.3,0,0,1-.169-.122c-.206-.179-.278-.368-.171-.525a.425.425,0,0,1,.088-.09c.06-.05.164-.131.27-.208l1.2-.92-.535-.664-1.691,1.114-.728-1.156H51.7l1.37,2.505a5.512,5.512,0,0,1-.788.336,4.158,4.158,0,0,1-1.331.2,2.441,2.441,0,0,1-.269-.014,1.537,1.537,0,0,1-.269-.052,3.507,3.507,0,0,1-.361-.126q.439-.278.857-.588a1.858,1.858,0,0,0,.329-.3,1.1,1.1,0,0,0,.221-.371,1.533,1.533,0,0,0,.072-.5,1.357,1.357,0,0,0-.042-.344,1.151,1.151,0,0,0-.333-.561,1.309,1.309,0,0,0-.3-.207,1.677,1.677,0,0,0-.4-.142,2.293,2.293,0,0,0-.515-.051,3.5,3.5,0,0,0-.637.066,3.7,3.7,0,0,0-.655.192,3.506,3.506,0,0,0-.583.3,3.025,3.025,0,0,0-.464.362,2.117,2.117,0,0,0-.71,1.75,1.2,1.2,0,0,0,.032.186c.02.08.052.187.088.292a3.626,3.626,0,0,1-.4-.018,1.163,1.163,0,0,1-.231-.046.85.85,0,0,1-.413-.279,1.772,1.772,0,0,1-.176-.247c-.075-.123-.17-.3-.261-.481l-.514-1.007c-.07-.137-.143-.272-.2-.368a1.364,1.364,0,0,0-.146-.2.715.715,0,0,0-.592-.269,1.5,1.5,0,0,0-.285.023.824.824,0,0,0-.214.069,1.267,1.267,0,0,0-.207.129,2.311,2.311,0,0,0-.4.406c-.23.271-.6.737-.948,1.213L41.5,85.919a1.75,1.75,0,0,0-.195-.329,1.08,1.08,0,0,0-.228-.224.962.962,0,0,0-.966-.084,1.251,1.251,0,0,0-.16.085,1.764,1.764,0,0,0-.185.133,2.478,2.478,0,0,0-.239.225,4.9,4.9,0,0,0-.383.464c-.171.23-.4.555-.542.749a1.66,1.66,0,0,1-.264.3.441.441,0,0,1-.285.138.287.287,0,0,1-.216-.109.679.679,0,0,1-.069-.094,1.108,1.108,0,0,1-.093-.183c-.038-.09-.086-.221-.155-.436s-.157-.516-.223-.707a1.893,1.893,0,0,0-.143-.337,1.493,1.493,0,0,0-.093-.15.748.748,0,0,0-.077-.094.456.456,0,0,0-.583-.1.894.894,0,0,0-.144.1,1.226,1.226,0,0,0-.252.293c-.13.188-.323.5-.478.74a5.031,5.031,0,0,1-.371.506,2.19,2.19,0,0,1-.254.255,1.507,1.507,0,0,1-.8.368,1.967,1.967,0,0,1-.457,0,1.224,1.224,0,0,1-.195-.037.806.806,0,0,1-.408-.258,1.692,1.692,0,0,1-.148-.2,22.927,22.927,0,0,0,1.532-2.113,5.6,5.6,0,0,0,.608-1.239,5.682,5.682,0,0,0,.232-.882,4.651,4.651,0,0,0,.069-.772,2.187,2.187,0,0,0-.062-.562,1.687,1.687,0,0,0-.183-.449,1.418,1.418,0,0,0-.289-.348,1.215,1.215,0,0,0-.361-.219,1.161,1.161,0,0,0-.4-.075,1.829,1.829,0,0,0-.448.052,2.5,2.5,0,0,0-.493.174,3.2,3.2,0,0,0-.546.333,4.42,4.42,0,0,0-.6.546,6.108,6.108,0,0,0-.624.809,6.683,6.683,0,0,0-.553,1.037,4.751,4.751,0,0,0-.311,1.128,8.957,8.957,0,0,0-.1,1.423c0,.217.008.434.022.631s.035.373.06.532.053.3.089.443a2.826,2.826,0,0,1-.311.222,1.642,1.642,0,0,1-.257.129,1.13,1.13,0,0,1-.2.06,1,1,0,0,1-.16.018.478.478,0,0,1-.277-.073.569.569,0,0,1-.158-.151.94.94,0,0,1-.086-.142A1.722,1.722,0,0,1,29,87.226l-.749-2.205-2.291.557.471,1.777c-.139.064-.28.123-.372.157a.843.843,0,0,1-.167.049.429.429,0,0,1-.222-.012.276.276,0,0,1-.131-.108.674.674,0,0,1-.073-.138c-.038-.086-.1-.231-.148-.376l-.45-1.113a1.524,1.524,0,0,0-.127-.245.766.766,0,0,0-.268-.269.6.6,0,0,0-.158-.063.826.826,0,0,0-.21-.022,1.377,1.377,0,0,0-.278.032,1.581,1.581,0,0,0-.318.11,2.793,2.793,0,0,0-.463.274q-.387.277-.747.589a5.757,5.757,0,0,0-.528-.6,2.072,2.072,0,0,0-.762-.491A2.384,2.384,0,0,0,20.179,85a2.676,2.676,0,0,0-1.026.18,1.716,1.716,0,0,0-.725.56,2.189,2.189,0,0,0-.174.269,3.071,3.071,0,0,0-.212.482c-.082.23-.177.549-.247.745a1.247,1.247,0,0,1-.152.325.461.461,0,0,1-.427.244.608.608,0,0,1-.463-.191,1.075,1.075,0,0,1-.113-.142,2.086,2.086,0,0,1-.16-.284q-.131-.275-.242-.56l-.707-1.82a3.242,3.242,0,0,0-.19-.414,1.436,1.436,0,0,0-.194-.27.8.8,0,0,0-.626-.28,1.332,1.332,0,0,0-.245.02.909.909,0,0,0-.374.158,1.671,1.671,0,0,0-.205.176,3.185,3.185,0,0,0-.4.5c-.221.315-.566.842-.9,1.376l-1.049-3.276q-.058-.185-.133-.364a1.729,1.729,0,0,0-.122-.237,1.149,1.149,0,0,0-.11-.151.758.758,0,0,0-.625-.274,1.253,1.253,0,0,0-.17.012.618.618,0,0,0-.345.159.956.956,0,0,0-.1.116,1.357,1.357,0,0,0-.158.272c-.077.161-.186.421-.289.683L8.145,85.984,6.689,80.46a3.455,3.455,0,0,0-.194-.552,1.881,1.881,0,0,0-.233-.387A1.255,1.255,0,0,0,6,79.272a1.041,1.041,0,0,0-.307-.151,1.411,1.411,0,0,0-1.184.2,1.885,1.885,0,0,0-.384.351,3.412,3.412,0,0,0-.411.631,8.449,8.449,0,0,0-.773,2.253,6.079,6.079,0,0,0-.108,1.1,1.366,1.366,0,0,0,.009.155.445.445,0,0,0,.133.3.418.418,0,0,0,.331.078A.441.441,0,0,0,3.6,83.99a.74.74,0,0,0,.057-.1,1.648,1.648,0,0,0,.137-.434c.029-.155.062-.388.094-.607s.061-.426.087-.558a1.108,1.108,0,0,1,.065-.234.859.859,0,0,1,.048-.1.348.348,0,0,1,.089-.105.225.225,0,0,1,.14-.047.132.132,0,0,1,.133.067.545.545,0,0,1,.023.05,1.248,1.248,0,0,1,.053.174c.032.121.082.332.133.544L5.9,87.889a4.32,4.32,0,0,0,.2.626,2.068,2.068,0,0,0,.226.42,1.236,1.236,0,0,0,.239.255.988.988,0,0,0,.839.173,1.037,1.037,0,0,0,.429-.214,1.687,1.687,0,0,0,.227-.224,2.7,2.7,0,0,0,.268-.378c.1-.165.21-.378.3-.567s.18-.381.263-.574c.095-.217.21-.484.321-.727s.217-.459.327-.673l.048.13c.017.047.036.1.141.4s.3.861.434,1.242a7.975,7.975,0,0,0,.3.752,2.555,2.555,0,0,0,.225.387,1.062,1.062,0,0,0,.6.462.919.919,0,0,0,.563-.038,1.185,1.185,0,0,0,.369-.24,2.394,2.394,0,0,0,.231-.252,3.444,3.444,0,0,0,.372-.58c.18-.332.438-.857.676-1.389l.642,1.477a2.121,2.121,0,0,0,.286.478,1.592,1.592,0,0,0,.361.332,1.5,1.5,0,0,0,.426.2,1.765,1.765,0,0,0,.49.066,2.76,2.76,0,0,0,.7-.119,4.787,4.787,0,0,0,.794-.325,6.412,6.412,0,0,0,.816-.5,5.61,5.61,0,0,0,.493.458,2.052,2.052,0,0,0,1.078.474,4.36,4.36,0,0,0,.446.03,2.88,2.88,0,0,0,.313-.01,2.01,2.01,0,0,0,1.465-.707,1.768,1.768,0,0,0,.211-.3c.082-.144.179-.346.263-.524s.152-.33.2-.42a.411.411,0,0,1,.111-.142.237.237,0,0,1,.29-.019.43.43,0,0,1,.08.061.711.711,0,0,1,.11.136,3.311,3.311,0,0,1,.2.37c.095.2.227.484.324.67a1.961,1.961,0,0,0,.218.344,2.067,2.067,0,0,0,.154.177,1.087,1.087,0,0,0,.809.344,2.129,2.129,0,0,0,.87-.17,2.384,2.384,0,0,0,.519-.3,8.394,8.394,0,0,0,.794-.682q.274.337.577.65a2.168,2.168,0,0,0,.335.29,1.12,1.12,0,0,0,.445.194,1.314,1.314,0,0,0,.249.022,2.423,2.423,0,0,0,.643-.117,6.651,6.651,0,0,0,1.744-.89,2.353,2.353,0,0,0,.341.427ZM33.61,81.47a.217.217,0,0,1,.143.1.472.472,0,0,1,.055.148,1.142,1.142,0,0,1,.022.15c.006.066.009.153.009.239a4.921,4.921,0,0,1-.07.682q-.064.372-.163.736a4.626,4.626,0,0,1-.216.622,10.311,10.311,0,0,1-.675,1.307,2.877,2.877,0,0,1-.194.281,1.024,1.024,0,0,1-.1.113c-.068.059-.108.09-.151.057a.2.2,0,0,1-.039-.085q-.012-.046-.02-.093a2,2,0,0,1-.025-.219q-.014-.234-.017-.468a5.8,5.8,0,0,1,.093-.847c.057-.322.144-.7.233-1.019a6.782,6.782,0,0,1,.258-.76,3.868,3.868,0,0,1,.215-.444,1.869,1.869,0,0,1,.166-.244.575.575,0,0,1,.427-.262A.373.373,0,0,1,33.61,81.47Zm15.2,5.246a1.1,1.1,0,0,1,.243-.47.778.778,0,0,1,.748-.288A.531.531,0,0,1,49.93,86a.421.421,0,0,1,.171.6.916.916,0,0,1-.079.146,1.483,1.483,0,0,1-.144.182,2.565,2.565,0,0,1-.292.269c-.145.118-.353.27-.567.414a1.142,1.142,0,0,1-.215-.433,1.1,1.1,0,0,1,.009-.462Zm-27.881-.378a.667.667,0,0,1,.433.836.64.64,0,0,1-.235.332.673.673,0,0,1-.607.094.7.7,0,0,1-.445-.448.634.634,0,0,1,.251-.727.714.714,0,0,1,.6-.086Zm15.712-4.228a1.233,1.233,0,0,0-.992.506,1.155,1.155,0,0,0-.169,1.047,1.225,1.225,0,0,0,.176.338,1.271,1.271,0,0,0,.281.277,1.2,1.2,0,1,0,.705-2.168Zm21.842,3.84a.831.831,0,0,0,.426-.313.856.856,0,0,0,.115-.745.828.828,0,0,0-.3-.423.845.845,0,0,0-1.31.934.829.829,0,0,0,.3.424.854.854,0,0,0,.769.122Zm-.909-1.025a.707.707,0,0,1,.1-.2.667.667,0,0,1,.151-.154.668.668,0,0,1,.946.154.746.746,0,0,1,.1.64.667.667,0,0,1-.853.449.666.666,0,0,1-.339-.251.751.751,0,0,1-.095-.642Zm.637.288.253.422h.163l-.273-.428a.274.274,0,0,0,.218-.129.313.313,0,0,0-.011-.3c-.1-.118-.181-.1-.3-.112H57.9v.973h.145v-.422h.167Zm-.167-.426h.2c.068,0,.17,0,.2.1a.155.155,0,0,1-.055.178.18.18,0,0,1-.078.023c-.072.008-.179,0-.268,0v-.3Z" transform="translate(6.16 -49.27)" fill="#fff"/>
    </g>
  </g>
</svg>
