<svg xmlns="http://www.w3.org/2000/svg" width="32" height="32" viewBox="0 0 32 32">
  <g id="Group_6679" data-name="Group 6679" transform="translate(-363 -574)">
    <g id="Path_1540" data-name="Path 1540" transform="translate(363 574)" fill="#da332f">
      <path d="M 16 31.5 C 11.85980033874512 31.5 7.967410087585449 29.88772010803223 5.039840221405029 26.96015930175781 C 2.112279891967773 24.03259086608887 0.5 20.14019966125488 0.5 16 C 0.5 11.85980033874512 2.112279891967773 7.967410087585449 5.039840221405029 5.039840221405029 C 7.967410087585449 2.112279891967773 11.85980033874512 0.5 16 0.5 C 20.14019966125488 0.5 24.03259086608887 2.112279891967773 26.96015930175781 5.039840221405029 C 29.88772010803223 7.967410087585449 31.5 11.85980033874512 31.5 16 C 31.5 20.14019966125488 29.88772010803223 24.03259086608887 26.96015930175781 26.96015930175781 C 24.03259086608887 29.88772010803223 20.14019966125488 31.5 16 31.5 Z" stroke="none"/>
      <path d="M 16 1 C 11.99334907531738 1 8.226520538330078 2.560270309448242 5.393400192260742 5.393400192260742 C 2.560270309448242 8.226520538330078 1 11.99334907531738 1 16 C 1 20.00664901733398 2.560270309448242 23.77347946166992 5.393400192260742 26.60659980773926 C 8.226520538330078 29.43972969055176 11.99334907531738 31 16 31 C 20.00664901733398 31 23.77347946166992 29.43972969055176 26.60659980773926 26.60659980773926 C 29.43972969055176 23.77347946166992 31 20.00664901733398 31 16 C 31 11.99334907531738 29.43972969055176 8.226520538330078 26.60659980773926 5.393400192260742 C 23.77347946166992 2.560270309448242 20.00664901733398 1 16 1 M 16 0 C 24.8365592956543 0 32 7.163440704345703 32 16 C 32 24.8365592956543 24.8365592956543 32 16 32 C 7.163440704345703 32 0 24.8365592956543 0 16 C 0 7.163440704345703 7.163440704345703 0 16 0 Z" stroke="none" fill="#fff"/>
    </g>
    <path id="Path_3725" data-name="Path 3725" d="M223.1,393.27a.506.506,0,0,1,.5.514v.266a.511.511,0,0,1-.5.514H211.5a.511.511,0,0,1-.5-.514v-.266a.506.506,0,0,1,.5-.514h2.041a.9.9,0,0,0,.869-.71l.106-.477A1.391,1.391,0,0,1,215.854,391h2.891a1.39,1.39,0,0,1,1.33,1.05l.114.511a.9.9,0,0,0,.869.711Zm-1.037,9.723c.21-1.986.586-6.7.586-6.751a.518.518,0,0,0-.127-.391.508.508,0,0,0-.366-.164h-9.708a.5.5,0,0,0-.367.164.553.553,0,0,0-.133.391c0,.009.015.175.037.453.1,1.234.376,4.671.555,6.3a2.042,2.042,0,0,0,2.052,1.979c.879.02,1.784.027,2.71.027.872,0,1.758-.007,2.66-.027a2.042,2.042,0,0,0,2.1-1.98Z" transform="translate(161.701 192)" fill="#fff" fill-rule="evenodd"/>
  </g>
</svg>
