<svg xmlns="http://www.w3.org/2000/svg" width="22.17" height="22.17" viewBox="0 0 22.17 22.17">
  <path id="Icon_ionic-ios-close-circle" data-name="Icon ionic-ios-close-circle" d="M14.46,3.375A11.085,11.085,0,1,0,25.545,14.46,11.083,11.083,0,0,0,14.46,3.375Zm2.809,15.1L14.46,15.664l-2.809,2.809a.852.852,0,1,1-1.2-1.2l2.809-2.809-2.809-2.809a.852.852,0,0,1,1.2-1.2l2.809,2.809,2.809-2.809a.852.852,0,1,1,1.2,1.2L15.664,14.46l2.809,2.809a.856.856,0,0,1,0,1.2A.846.846,0,0,1,17.269,18.473Z" transform="translate(-3.375 -3.375)" fill="#3b3a3b"/>
</svg>
