<svg xmlns="http://www.w3.org/2000/svg" width="18" height="20.002" viewBox="0 0 18 20.002">
  <path id="Path_3725" data-name="Path 3725" d="M228.287,394.243a.723.723,0,0,1,.713.734v.38a.73.73,0,0,1-.713.734H211.714a.73.73,0,0,1-.714-.734v-.38a.723.723,0,0,1,.714-.734h2.916a1.283,1.283,0,0,0,1.241-1.015l.152-.682A1.988,1.988,0,0,1,217.935,391h4.13a1.986,1.986,0,0,1,1.9,1.5l.163.73a1.281,1.281,0,0,0,1.241,1.016Zm-1.481,13.891c.3-2.837.837-9.577.837-9.645a.74.74,0,0,0-.181-.558.726.726,0,0,0-.523-.234h-13.87a.708.708,0,0,0-.524.234.79.79,0,0,0-.19.558c0,.013.021.25.053.647.142,1.763.537,6.674.793,9a2.917,2.917,0,0,0,2.931,2.827c1.256.029,2.549.039,3.872.039,1.246,0,2.511-.01,3.8-.039a2.918,2.918,0,0,0,3-2.829Z" transform="translate(-211 -391)" fill="#da332f" fill-rule="evenodd"/>
</svg>
