<svg xmlns="http://www.w3.org/2000/svg" width="20.002" height="19.996" viewBox="0 0 20.002 19.996">
  <path id="Path_3634" data-name="Path 3634" d="M831.637,392.395c-2.577,0-4.242,1.767-4.242,4.493V405.1a5.334,5.334,0,0,0,.385,2.039c.011-.012.24-.291.538-.655.584-.711,1.433-1.746,1.439-1.752.692-.79,1.991-1.968,3.7-1.255a6.581,6.581,0,0,1,1.012.563l.088.056c.573.383.91.563,1.26.533a1.028,1.028,0,0,0,.41-.143,16.3,16.3,0,0,0,2.126-2.622c.056-.079.092-.131.1-.147a3.11,3.11,0,0,1,4.17-.96c.188.112,1.535,1.053,1.981,1.431v-5.3c0-2.726-1.665-4.493-4.251-4.493ZM840.353,391c3.377,0,5.646,2.362,5.646,5.888V405.1a2.36,2.36,0,0,1-.018.255c-.007.059-.013.117-.017.177v.11a1.065,1.065,0,0,1-.007.145.469.469,0,0,1-.009.056.48.48,0,0,0-.01.055,6.808,6.808,0,0,1-.155.9c-.016.073-.036.143-.055.214l-.005.015a6.234,6.234,0,0,1-.287.808c-.019.044-.04.086-.061.128l-.042.084a5.4,5.4,0,0,1-.407.7c-.028.041-.058.079-.088.116l-.06.076a5.064,5.064,0,0,1-.513.582,1.407,1.407,0,0,1-.118.1l-.076.062a5.047,5.047,0,0,1-.607.461,1.6,1.6,0,0,1-.147.08l-.1.049a5.322,5.322,0,0,1-.687.333,1.478,1.478,0,0,1-.183.055l-.132.036-.064.021a5.289,5.289,0,0,1-.668.174,3.786,3.786,0,0,1-.423.042l-.186.013c-.066.005-.131.013-.2.021a2.622,2.622,0,0,1-.324.026h-8.716a6.641,6.641,0,0,1-1.082-.1l-.037-.006a5.222,5.222,0,0,1-3.263-1.871c-.005,0-.007,0-.01-.008l-.008-.011A6.189,6.189,0,0,1,826,405.1v-8.214c0-3.526,2.271-5.888,5.638-5.888ZM835,397.515a2.495,2.495,0,0,1-4.941.479,2.4,2.4,0,0,1-.059-.525,2.5,2.5,0,0,1,5,.046Z" transform="translate(-825.997 -390.998)" fill="#676767"/>
</svg>
