<svg xmlns="http://www.w3.org/2000/svg" width="37.826" height="89.745" viewBox="0 0 37.826 89.745">
  <g id="Group_3730" data-name="Group 3730" transform="translate(-0.112 -1.315)">
    <path id="Path_108" data-name="Path 108" d="M12.2,2401.245c-.417.589-.838,1.177-1.247,1.772-.08.117-.137.118-.246.05-.45-.286-.9-.568-1.377-.813a5.162,5.162,0,0,0-1.984-.539,5.891,5.891,0,0,0-2.476.29,1.93,1.93,0,0,0-1.017.692.95.95,0,0,0,.687,1.558,3.025,3.025,0,0,0,.69.071c.677,0,1.354-.014,2.03,0a9.947,9.947,0,0,1,3.063.473,4.175,4.175,0,0,1,1.753,1.1,3.338,3.338,0,0,1,.823,1.681,4.5,4.5,0,0,1,.089,1.037,3.5,3.5,0,0,1-.851,2.2,5.076,5.076,0,0,1-2.211,1.42,8.654,8.654,0,0,1-2.3.471c-.158.011-.315.022-.473.028-.24.028-.481,0-.721.013a8.168,8.168,0,0,1-3.68-.809,7.4,7.4,0,0,1-1.707-1.142c-.33-.29-.636-.6-.938-.92v-.031a1.547,1.547,0,0,0,.253-.237q.707-.69,1.412-1.381c.075-.074.13-.071.217-.011.525.367,1,.8,1.561,1.119a1.8,1.8,0,0,0,.518.259.73.73,0,0,1,.153.036,6.681,6.681,0,0,0,2.2.495,6.828,6.828,0,0,0,2.743-.372,2.561,2.561,0,0,0,.9-.545,1.244,1.244,0,0,0,.031-1.608,1.732,1.732,0,0,0-.832-.5,6.411,6.411,0,0,0-1.473-.194c-.264-.012-.529,0-.793,0a.254.254,0,0,1-.2-.043H4.875c-.06-.037-.131,0-.192-.027a4.133,4.133,0,0,1-2.38-.886,3.033,3.033,0,0,1-1.179-2.165c-.03-.05.008-.111-.027-.16,0-.2,0-.4,0-.6.035-.049,0-.11.027-.16a3.205,3.205,0,0,1,.653-1.648,4.864,4.864,0,0,1,2.294-1.623,7.54,7.54,0,0,1,2.072-.446c.093-.035.194.013.287-.028h.6c.093.041.194-.007.287.027l.19,0c.049.036.109,0,.159.027a8.709,8.709,0,0,1,2.563.683,9.718,9.718,0,0,1,1.923,1.144C12.257,2401.087,12.27,2401.145,12.2,2401.245Z" transform="translate(0 -2321.702)" fill="#fff"/>
    <path id="Path_109" data-name="Path 109" d="M1189.247,1920.151v.92a.036.036,0,0,1-.05-.015,2.786,2.786,0,0,1,0-.889A.037.037,0,0,1,1189.247,1920.151Z" transform="translate(-1151.31 -1857.93)" fill="#fff"/>
    <path id="Path_110" data-name="Path 110" d="M198.034,2828.02c0-.01,0-.019,0-.029h.764c0,.01,0,.019,0,.029Z" transform="translate(-191.639 -2736.96)" fill="#fff"/>
    <path id="Path_111" data-name="Path 111" d="M1189.146,2687.438h-.029a.566.566,0,0,1,0-.51h.029Z" transform="translate(-1151.209 -2600.376)" fill="#fff"/>
    <path id="Path_112" data-name="Path 112" d="M1189.281,1909.545h-.027a.289.289,0,0,1,0-.349.038.038,0,0,1,.026,0Z" transform="translate(-1151.344 -1847.324)" fill="#fff"/>
    <path id="Path_113" data-name="Path 113" d="M1189.311,1949.279h.027v.317l-.013,0h-.014A.252.252,0,0,1,1189.311,1949.279Z" transform="translate(-1151.4 -1886.137)" fill="#fff"/>
    <path id="Path_114" data-name="Path 114" d="M65.107,63.142v.318a20.057,20.057,0,0,1-.6,4.256c-.025.1-.06.136-.166.136q-5.558,0-11.117,0c-.035,0-.07-.005-.107-.008a.328.328,0,0,1,.081-.159,7.6,7.6,0,0,0,1.02-2.607.68.68,0,0,0,.006-.094l.1-.682c.025-.056,0-.118.023-.174l.009-.207c.034-.109,0-.223.023-.333v-.541c-.028-.1.011-.2-.023-.295L54.34,62.6c-.025-.052.006-.113-.024-.165a5.77,5.77,0,0,0-.4-1.5,6.022,6.022,0,0,0-.765-1.3,6.828,6.828,0,0,0-.916-.973,9.9,9.9,0,0,0-1.425-1.046,17.164,17.164,0,0,0-1.567-.859c-.6-.285-1.2-.552-1.814-.794s-1.237-.479-1.862-.7c-.683-.24-1.365-.486-2.047-.729-.595-.212-1.191-.42-1.784-.637-.714-.26-1.431-.512-2.136-.795-.778-.312-1.549-.642-2.309-1a24.53,24.53,0,0,1-2.278-1.227,14.954,14.954,0,0,1-1.8-1.274c-.356-.3-.709-.594-1.04-.916a12.978,12.978,0,0,1-1.859-2.283,11.9,11.9,0,0,1-.741-1.354,12.892,12.892,0,0,1-.923-2.648c-.086-.374-.157-.749-.223-1.127-.046-.264-.076-.528-.106-.794-.023-.053.006-.114-.023-.166l-.007-.12c-.026-.065.006-.137-.024-.2l-.008-.178c-.029-.087.009-.179-.024-.265l-.009-.274c-.03-.152.012-.307-.023-.458v-.859c.034-.119-.005-.243.023-.363l.009-.337c.031-.076,0-.158.023-.234l.009-.18c.027-.054,0-.115.023-.169a9.3,9.3,0,0,1,.206-1.421c.1-.481.229-.958.378-1.429.159-.5.343-1,.548-1.48.162-.382.356-.753.556-1.119.24-.438.493-.867.774-1.28.26-.381.537-.748.829-1.106a14.772,14.772,0,0,1,1.266-1.389,16.114,16.114,0,0,1,2.932-2.21,16.882,16.882,0,0,1,5.41-2c.448-.086.9-.141,1.355-.21.054-.023.115,0,.168-.023L42.858,23c.055-.021.117,0,.172-.022l.177-.008c.076-.027.159.007.234-.023l.273-.009c.13-.029.264.012.393-.023h1.18c.108.033.221-.005.33.023l.24.009c.066.028.138,0,.2.023l.176.009c.055.026.118,0,.173.024l.118.008c.053.029.114,0,.168.024.38.076.765.118,1.145.19.67.127,1.329.3,1.984.484.175.05.174.053.174-.126V1.536c0-.217,0-.217.218-.217q5.236,0,10.471,0c.153,0,.19.038.19.191q-.006,19.438,0,38.877c0,.151-.033.192-.189.192q-5.077-.007-10.154,0c-.147,0-.194-.026-.194-.185,0-.7.032-1.4-.027-2.093a7.393,7.393,0,0,0-.708-2.71,4.633,4.633,0,0,0-2.839-2.4,6.836,6.836,0,0,0-4.808.13A4.531,4.531,0,0,0,39,37.2a4.082,4.082,0,0,0,.659,2.977,5,5,0,0,0,1.577,1.352A17.291,17.291,0,0,0,44.361,42.9c1.978.688,3.992,1.264,6,1.841a25.421,25.421,0,0,1,6.449,2.769,17.583,17.583,0,0,1,5.633,5.415,16.327,16.327,0,0,1,2.24,5.476,19.5,19.5,0,0,1,.42,3.472q0,.175,0,.349Q65.107,62.681,65.107,63.142Z" transform="translate(-27.197)" fill="#fff"/>
    <path id="Path_115" data-name="Path 115" d="M432.007,2408.014c.063,0,.127-.006.19-.006h10.455c.209,0,.209,0,.209.2,0,.719,0,1.438,0,2.157,0,.145-.037.186-.184.185q-3.95-.007-7.9,0c-.2,0-.2,0-.2.206v2.03c0,.208,0,.208.218.208h7.092c.215,0,.215,0,.215.212,0,.724,0,1.449,0,2.173,0,.146-.039.185-.185.184q-3.57-.007-7.139,0c-.2,0-.2,0-.2.207,0,.867,0,1.734,0,2.6,0,.142.039.176.178.176q4.1-.007,8.2,0c.254,0,.225-.024.225.232,0,.708,0,1.417,0,2.125,0,.142-.032.188-.182.187q-5.4-.007-10.8,0c-.157,0-.19-.046-.189-.2q.006-6.114,0-12.229c0-.058,0-.116,0-.174C432.006,2408.329,432.006,2408.171,432.007,2408.014Z" transform="translate(-418.184 -2330.307)" fill="#fff"/>
    <path id="Path_116" data-name="Path 116" d="M32.84,2177.853a2.881,2.881,0,0,1-1.713-.63,2.557,2.557,0,0,1-.92-1.537,2.484,2.484,0,0,1-.037-.344c-.028-.05.008-.111-.026-.16v-.343c.035-.049,0-.11.026-.16a2.657,2.657,0,0,1,.979-1.823,3.02,3.02,0,0,1,2.2-.679,2.893,2.893,0,0,1,1.882.786l.011.011c.236.217.237.217,0,.45-.21.212-.211.212-.447.031a2.9,2.9,0,0,0-1.264-.6.89.89,0,0,0-.156-.015,1.4,1.4,0,0,0-.451,0,2.2,2.2,0,0,0-1.455,3.795,2.159,2.159,0,0,0,1.328.554c.049.034.111,0,.161.027h.384c.061-.032.132.01.192-.027a1.665,1.665,0,0,0,1.275-.632.561.561,0,0,0,.119-.35,3.705,3.705,0,0,0,0-.763h0a.278.278,0,0,0-.154-.016c-.521,0-1.043,0-1.564,0-.051,0-.106.017-.153-.018,0-.169,0-.338,0-.507,0-.084.018-.125.113-.125q1.157,0,2.314,0c.069,0,.111.016.108.1-.017.506.029,1.012-.027,1.518a1.372,1.372,0,0,1-.7,1.032,2.886,2.886,0,0,1-1.462.435A2.743,2.743,0,0,1,32.84,2177.853Z" transform="translate(-29.077 -2101.955)" fill="#fff"/>
    <path id="Path_117" data-name="Path 117" d="M641.825,2175.554c.148,0,.3.007.444-.007s.2.034.2.19q-.01,1.538,0,3.076a2.485,2.485,0,0,0,.095.733,1.154,1.154,0,0,0,.79.8,2.925,2.925,0,0,0,1.774,0,1.2,1.2,0,0,0,.859-1.1,16.1,16.1,0,0,0,.029-1.725c.008-.608,0-1.215,0-1.823,0-.107.026-.156.141-.146.157.014.358-.063.46.03s.034.3.034.456c0,1,.006,2,0,3a2.367,2.367,0,0,1-.214.98,1.654,1.654,0,0,1-.96.894,3.593,3.593,0,0,1-2.36.043,1.75,1.75,0,0,1-1.252-1.641c-.078-.859-.012-1.721-.035-2.582Q641.824,2176.14,641.825,2175.554Z" transform="translate(-621.34 -2105.21)" fill="#fff"/>
    <path id="Path_118" data-name="Path 118" d="M257.92,2278.316c0-.7.009-1.4,0-2.1,0-.151.046-.183.187-.181.612.007,1.224,0,1.836,0,.055,0,.117-.024.163.03-.665,0-1.331,0-2,0-.127,0-.161.037-.16.161.006.639,0,1.278,0,1.917C257.955,2278.2,257.983,2278.268,257.92,2278.316Z" transform="translate(-249.626 -2202.517)" fill="#fff"/>
    <path id="Path_119" data-name="Path 119" d="M241.145,2175.133l-3.076,0c.04-.05.1-.031.147-.032H241C241.046,2175.106,241.1,2175.088,241.145,2175.133Z" transform="translate(-230.405 -2104.794)" fill="#fff"/>
    <path id="Path_120" data-name="Path 120" d="M181.07,2275.151a2.086,2.086,0,0,1,0,.764Q181.071,2275.533,181.07,2275.151Z" transform="translate(-175.215 -2201.667)" fill="#fff"/>
    <path id="Path_121" data-name="Path 121" d="M418.853,2253.2q0,.268,0,.536A1.047,1.047,0,0,1,418.853,2253.2Z" transform="translate(-405.417 -2180.412)" fill="#fff"/>
    <path id="Path_122" data-name="Path 122" d="M28,1183.136a2.007,2.007,0,0,1,.023.458A1.481,1.481,0,0,1,28,1183.136Z" transform="translate(-26.994 -1144.311)" fill="#fff"/>
    <path id="Path_123" data-name="Path 123" d="M117.984,2192.065a.744.744,0,0,1,.451,0Z" transform="translate(-114.131 -2121.184)" fill="#fff"/>
    <path id="Path_124" data-name="Path 124" d="M393.153,2219.625q0-.205,0-.409A.63.63,0,0,1,393.153,2219.625Z" transform="translate(-380.566 -2147.507)" fill="#fff"/>
    <path id="Path_125" data-name="Path 125" d="M517.426,681.711a1.64,1.64,0,0,1-.393.023A1.1,1.1,0,0,1,517.426,681.711Z" transform="translate(-500.515 -658.795)" fill="#fff"/>
    <path id="Path_126" data-name="Path 126" d="M28.03,1144.644a1.269,1.269,0,0,1-.023.363A.957.957,0,0,1,28.03,1144.644Z" transform="translate(-27.003 -1107.041)" fill="#fff"/>
    <path id="Path_127" data-name="Path 127" d="M566.923,681.737a1.1,1.1,0,0,1-.329-.023C566.7,681.722,566.816,681.683,566.923,681.737Z" transform="translate(-548.502 -658.798)" fill="#fff"/>
    <path id="Path_128" data-name="Path 128" d="M851.868,1963.294a.988.988,0,0,1-.023.333C851.854,1963.516,851.814,1963.4,851.868,1963.294Z" transform="translate(-824.694 -1899.708)" fill="#fff"/>
    <path id="Path_129" data-name="Path 129" d="M218.268,2399.023c-.1-.006-.2.026-.287-.027C218.076,2399.006,218.177,2398.965,218.268,2399.023Z" transform="translate(-210.954 -2321.577)" fill="#fff"/>
    <path id="Path_130" data-name="Path 130" d="M851.867,1936.974a.784.784,0,0,1,.023.295C851.839,1937.174,851.873,1937.073,851.867,1936.974Z" transform="translate(-824.716 -1874.224)" fill="#fff"/>
    <path id="Path_131" data-name="Path 131" d="M190.406,2399c-.091.054-.191.021-.287.027C190.21,2398.965,190.31,2399.007,190.406,2399Z" transform="translate(-183.976 -2321.577)" fill="#fff"/>
    <path id="Path_132" data-name="Path 132" d="M29.012,1206.21a.754.754,0,0,1,.024.265C28.982,1206.391,29.018,1206.3,29.012,1206.21Z" transform="translate(-27.977 -1166.653)" fill="#fff"/>
    <path id="Path_133" data-name="Path 133" d="M501.27,682.74a.577.577,0,0,1-.234.023C501.109,682.712,501.191,682.745,501.27,682.74Z" transform="translate(-485.024 -659.792)" fill="#fff"/>
    <path id="Path_134" data-name="Path 134" d="M29.053,1126.649a.556.556,0,0,1-.023.234C29.035,1126.805,29,1126.723,29.053,1126.649Z" transform="translate(-27.994 -1089.617)" fill="#fff"/>
    <path id="Path_135" data-name="Path 135" d="M30.045,1220.186a.435.435,0,0,1,.024.2C30.019,1220.326,30.049,1220.254,30.045,1220.186Z" transform="translate(-28.978 -1180.186)" fill="#fff"/>
    <path id="Path_136" data-name="Path 136" d="M584.732,682.78a.441.441,0,0,1-.2-.023C584.6,682.762,584.668,682.731,584.732,682.78Z" transform="translate(-565.866 -659.809)" fill="#fff"/>
    <path id="Path_137" data-name="Path 137" d="M30.094,2251.207c0,.055.018.113-.026.16C30.073,2251.313,30.046,2251.254,30.094,2251.207Z" transform="translate(-29.002 -2178.483)" fill="#fff"/>
    <path id="Path_138" data-name="Path 138" d="M233.161,2400.075c-.054,0-.112.018-.159-.027C233.056,2400.054,233.115,2400.028,233.161,2400.075Z" transform="translate(-225.498 -2322.598)" fill="#fff"/>
    <path id="Path_139" data-name="Path 139" d="M31.067,1230.333a.3.3,0,0,1,.023.166C31.046,1230.448,31.07,1230.389,31.067,1230.333Z" transform="translate(-29.968 -1190.01)" fill="#fff"/>
    <path id="Path_140" data-name="Path 140" d="M596.685,683.8a.309.309,0,0,1-.173-.024C596.57,683.782,596.633,683.756,596.685,683.8Z" transform="translate(-577.471 -660.799)" fill="#fff"/>
    <path id="Path_141" data-name="Path 141" d="M31.095,2517.083c0,.054.018.113-.027.16C31.073,2517.189,31.047,2517.13,31.095,2517.083Z" transform="translate(-29.971 -2435.92)" fill="#fff"/>
    <path id="Path_142" data-name="Path 142" d="M850.931,1980.288a.3.3,0,0,1-.023.174C850.911,1980.4,850.885,1980.341,850.931,1980.288Z" transform="translate(-823.789 -1916.162)" fill="#fff"/>
    <path id="Path_143" data-name="Path 143" d="M850.907,1927.07a.288.288,0,0,1,.024.165C850.885,1927.186,850.91,1927.126,850.907,1927.07Z" transform="translate(-823.788 -1864.634)" fill="#fff"/>
    <path id="Path_144" data-name="Path 144" d="M605.86,684.8a.306.306,0,0,1-.168-.024C605.749,684.78,605.809,684.755,605.86,684.8Z" transform="translate(-586.36 -661.766)" fill="#fff"/>
    <path id="Path_145" data-name="Path 145" d="M480.209,684.778a.3.3,0,0,1-.169.023C480.091,684.756,480.152,684.78,480.209,684.778Z" transform="translate(-464.696 -661.766)" fill="#fff"/>
    <path id="Path_146" data-name="Path 146" d="M490.213,683.778a.328.328,0,0,1-.172.022C490.093,683.756,490.155,683.781,490.213,683.778Z" transform="translate(-474.379 -660.798)" fill="#fff"/>
    <path id="Path_147" data-name="Path 147" d="M30.067,2267.034c.045.048.025.106.026.16C30.046,2267.147,30.073,2267.088,30.067,2267.034Z" transform="translate(-29.002 -2193.808)" fill="#fff"/>
    <path id="Path_148" data-name="Path 148" d="M30.09,1115.656a.308.308,0,0,1-.023.169C30.07,1115.768,30.045,1115.707,30.09,1115.656Z" transform="translate(-29 -1078.973)" fill="#fff"/>
    <path id="Path_149" data-name="Path 149" d="M31.067,2540.929c.045.047.025.106.027.16C31.046,2541.042,31.073,2540.983,31.067,2540.929Z" transform="translate(-29.97 -2459.01)" fill="#fff"/>
    <path id="Path_150" data-name="Path 150" d="M1033.815,2178.734c0-.856,0-1.713,0-2.569,0-.132.037-.168.169-.168q2.006.008,4.013,0c.146,0,.186.046.172.181a1.513,1.513,0,0,0,0,.3c.012.127-.035.161-.16.16-.793-.005-1.586,0-2.379,0-.328,0-.656.008-.983,0-.149,0-.2.031-.2.189.011.428.009.857,0,1.285,0,.141.031.188.182.188,1.116-.006,2.231,0,3.347-.007.154,0,.166,0,.166,0v.662h-.442c-1.026,0-2.052,0-3.077,0-.142,0-.178.04-.175.178.008.5.009,1,0,1.506,0,.158.052.194.2.194,1.1-.006,2.2,0,3.3,0,.218,0,.218,0,.218.225,0,.09-.006.18,0,.269.01.113-.036.144-.145.143-.587,0-1.174,0-1.761,0h-2.221c-.249,0-.224.026-.224-.217Q1033.815,2179.987,1033.815,2178.734Z" transform="translate(-1000.892 -2105.66)" fill="#fff"/>
    <path id="Path_151" data-name="Path 151" d="M241.689,2178.843a1.437,1.437,0,0,0,1.248-1.386,1.5,1.5,0,0,0,0-.409,1.322,1.322,0,0,0-.782-1.119,3.1,3.1,0,0,0-1.064-.251.189.189,0,0,0-.093-.012h-2.877a.163.163,0,0,0-.107.017q0,2.084,0,4.167c0,.375,0,.75,0,1.125,0,.12.024.173.156.164.158-.011.317,0,.475,0,.038-.052.019-.112.019-.168,0-.645,0-1.29,0-1.934,0-.126.027-.171.163-.169.623.007,1.247,0,1.87,0a.238.238,0,0,1,.139.015,1.532,1.532,0,0,0,.175.335c.335.614.676,1.226,1.013,1.839a.125.125,0,0,0,.123.078c.19,0,.381,0,.571,0,.079,0,.09-.021.048-.092-.11-.186-.211-.377-.316-.566-.276-.5-.552-.995-.831-1.49C241.564,2178.895,241.569,2178.869,241.689,2178.843Zm-.187-.655c-.732.067-1.466.015-2.2.031-.174,0-.349,0-.523,0-.092,0-.132-.022-.131-.124q.006-.831,0-1.663c0-.1.045-.121.134-.121.422,0,.845,0,1.268,0h0c.4,0,.8-.006,1.2,0a1.22,1.22,0,0,1,.658.2.932.932,0,0,1,.351,1.093A.791.791,0,0,1,241.5,2178.188Z" transform="translate(-230.35 -2105.339)" fill="#fff"/>
    <path id="Path_152" data-name="Path 152" d="M425.316,2174.584a.389.389,0,0,1-.028-.073,2.737,2.737,0,0,0-.979-1.713,2.946,2.946,0,0,0-2.452-.645,2.72,2.72,0,0,0-1.731.973,2.672,2.672,0,0,0-.651,1.555,2.481,2.481,0,0,0,0,.536,2.4,2.4,0,0,0,.307,1.049,2.8,2.8,0,0,0,2.33,1.525,4.179,4.179,0,0,0,.958-.065,2.859,2.859,0,0,0,2.134-1.954A3.514,3.514,0,0,0,425.316,2174.584Zm-2.942,2.573a2.207,2.207,0,1,1,2.312-2.186A2.22,2.22,0,0,1,422.375,2177.157Z" transform="translate(-406.039 -2101.894)" fill="#fff"/>
    <path id="Path_153" data-name="Path 153" d="M824.968,2416.833a2.333,2.333,0,0,0-.03-.282,3.6,3.6,0,0,0-1.344-2.359c-.091-.075-.076-.106-.012-.18a3.181,3.181,0,0,0,.659-1.231,4.039,4.039,0,0,0,.089-1.8,3.3,3.3,0,0,0-1.375-2.242,4.1,4.1,0,0,0-2.406-.756c-2.459-.006-4.918,0-7.376,0-.2,0-.2,0-.2.21v12.655c0,.208,0,.208.217.208q3.553,0,7.107,0a7.007,7.007,0,0,0,1.429-.132,4.29,4.29,0,0,0,2.044-.982,3.6,3.6,0,0,0,1.2-2.6C824.968,2417.173,824.968,2417,824.968,2416.833Zm-9.459-6.136c0-.143.049-.177.184-.177,1.581,0,3.161,0,4.742,0a2.171,2.171,0,0,1,.578.075.958.958,0,0,1,.791.856,1.476,1.476,0,0,1-.383,1.328,1.348,1.348,0,0,1-.963.336c-.793.009-1.586,0-2.379,0h0c-.8,0-1.607,0-2.411,0-.126,0-.161-.037-.16-.161Q815.517,2411.831,815.508,2410.7Zm6.811,6.987a1.307,1.307,0,0,1-1.037.737,4.524,4.524,0,0,1-1.005.087c-1.516.011-3.033,0-4.55.008-.151,0-.2-.039-.194-.192.008-.813.009-1.627,0-2.44,0-.169.052-.2.206-.2.84.007,1.68,0,2.521,0v0c.84,0,1.68-.006,2.521,0a2.461,2.461,0,0,1,.968.2,1.116,1.116,0,0,1,.675,1.041A1.667,1.667,0,0,1,822.32,2417.684Z" transform="translate(-787.059 -2330.281)" fill="#fff"/>
    <path id="Path_154" data-name="Path 154" d="M852.568,2177.251a1.308,1.308,0,0,0-.648-.979,1.667,1.667,0,0,0-.843-.238c-1.02-.006-2.04,0-3.06-.006-.119,0-.152.034-.152.152,0,.861,0,1.723,0,2.584s0,1.7,0,2.552c0,.145.043.187.18.173a1.476,1.476,0,0,1,.3,0c.125.012.163-.032.161-.159-.006-.676,0-1.352-.005-2.029,0-.123.03-.163.158-.162.714.006,1.427,0,2.141,0a3.946,3.946,0,0,0,.536-.03,1.357,1.357,0,0,0,1.215-1.06A2.119,2.119,0,0,0,852.568,2177.251Zm-.722.842a.8.8,0,0,1-.607.382,3.279,3.279,0,0,1-.6.031c-.66,0-1.321,0-1.981,0-.125,0-.162-.034-.16-.16.007-.507.008-1.014,0-1.521,0-.137.044-.167.172-.165.4.007.792,0,1.188,0h0c.386,0,.771,0,1.157,0A.926.926,0,0,1,851.847,2178.093Z" transform="translate(-820.845 -2105.689)" fill="#fff"/>
  </g>
</svg>
