<svg xmlns="http://www.w3.org/2000/svg" xmlns:xlink="http://www.w3.org/1999/xlink" width="144" height="142" viewBox="0 0 144 142">
  <defs>
    <filter id="Path_168" x="7.409" y="62.378" width="111.18" height="35.244" filterUnits="userSpaceOnUse">
      <feOffset dy="1" input="SourceAlpha"/>
      <feGaussianBlur stdDeviation="3" result="blur"/>
      <feFlood flood-opacity="0.102"/>
      <feComposite operator="in" in2="blur"/>
      <feComposite in="SourceGraphic"/>
    </filter>
    <filter id="Rectangle_46" x="100" y="0" width="44" height="44" filterUnits="userSpaceOnUse">
      <feOffset dy="1" input="SourceAlpha"/>
      <feGaussianBlur stdDeviation="3" result="blur-2"/>
      <feFlood flood-opacity="0.11"/>
      <feComposite operator="in" in2="blur-2"/>
      <feComposite in="SourceGraphic"/>
    </filter>
  </defs>
  <g id="Group_6625" data-name="Group 6625" transform="translate(-585 -342)">
    <g id="Rectangle_1666" data-name="Rectangle 1666" transform="translate(585 358)" fill="#fff" stroke="#9f1814" stroke-width="1">
      <rect width="126" height="126" rx="12" stroke="none"/>
      <rect x="0.5" y="0.5" width="125" height="125" rx="11.5" fill="none"/>
    </g>
    <g id="Group_3753" data-name="Group 3753" transform="translate(298 -9)">
      <rect id="Rectangle_1662" data-name="Rectangle 1662" width="116" height="116" rx="11" transform="translate(292 372)" fill="#ae4541"/>
      <g transform="matrix(1, 0, 0, 1, 287, 351)" filter="url(#Path_168)">
        <path id="Path_168-2" data-name="Path 168" d="M50,95.28a2.959,2.959,0,0,0,.647.481,3.515,3.515,0,0,0,2.648.207,6.333,6.333,0,0,0,1.136-.441,10.087,10.087,0,0,0,1.188-.7,13.434,13.434,0,0,0,1.215-.933,10.027,10.027,0,0,0,.887,1.17,4.277,4.277,0,0,0,.747.677,2.135,2.135,0,0,0,1.234.424,2.029,2.029,0,0,0,.591-.086,3.779,3.779,0,0,0,1.4-.837l1.667-1.455a.368.368,0,0,0,.075-.057c.052-.043.143-.123.2-.174a.9.9,0,0,1,.154-.114c.077-.028.1.033.159.093a1.13,1.13,0,0,1,.089.124c.039.061.089.147.136.235l.887,1.49a1.493,1.493,0,0,0,.238.305,1.341,1.341,0,0,0,1.652.267,2.637,2.637,0,0,0,.771-.678l1.207-1.455c.1-.121.2-.24.272-.315a.714.714,0,0,1,.236-.182.376.376,0,0,1,.429.082.965.965,0,0,1,.139.164c.076.106.195.283.307.464l.674.994a4.619,4.619,0,0,0,.441.548,1.985,1.985,0,0,0,1.188.649,3.785,3.785,0,0,0,.607.044,7.077,7.077,0,0,0,.789-.029,4.5,4.5,0,0,0,.919-.2c.511-.148,1.356-.41,2.194-.689a7.242,7.242,0,0,0,1.078.607,3.368,3.368,0,0,0,.947.272,8.194,8.194,0,0,0,1.239.078,12.957,12.957,0,0,0,2.388-.237,12.527,12.527,0,0,0,2.189-.646,15.011,15.011,0,0,0,2.058-1,15.462,15.462,0,0,0,1.279,1.133,3.2,3.2,0,0,0,.75.457,2.641,2.641,0,0,0,.65.19,6.244,6.244,0,0,0,.866.065,6.411,6.411,0,0,0,.793-.039,9.166,9.166,0,0,0,2.63-.7,6.007,6.007,0,0,0,.674-.345,3.138,3.138,0,0,0,.414-.291,1.354,1.354,0,0,0,.206-.21.491.491,0,0,0,.043-.572.541.541,0,0,0-.211-.215.859.859,0,0,0-.3-.1,2.013,2.013,0,0,0-.272-.018c-.119,0-.272,0-.525.019s-.607.048-.849.066-.375.023-.5.022a3.135,3.135,0,0,1-1.594-.457,2.159,2.159,0,0,1-.28-.2c-.342-.3-.46-.61-.284-.87a.7.7,0,0,1,.146-.149c.1-.084.271-.218.448-.344L93.1,90.351l-.887-1.1L89.41,91.1,88.2,89.18H83.8l2.271,4.151a9.133,9.133,0,0,1-1.306.557,6.891,6.891,0,0,1-2.206.329,4.049,4.049,0,0,1-.446-.024,2.547,2.547,0,0,1-.446-.087,5.816,5.816,0,0,1-.6-.209q.728-.46,1.419-.975a3.078,3.078,0,0,0,.545-.493,1.821,1.821,0,0,0,.366-.616,2.54,2.54,0,0,0,.119-.826,2.249,2.249,0,0,0-.07-.57,1.908,1.908,0,0,0-.551-.93,2.17,2.17,0,0,0-.5-.344,2.779,2.779,0,0,0-.662-.236,3.8,3.8,0,0,0-.854-.085,5.8,5.8,0,0,0-1.056.109,6.131,6.131,0,0,0-1.085.319,5.81,5.81,0,0,0-.967.494,5.012,5.012,0,0,0-.768.6,3.509,3.509,0,0,0-1.176,2.9,1.986,1.986,0,0,0,.053.308c.033.132.086.31.146.485a6,6,0,0,1-.656-.03,1.928,1.928,0,0,1-.383-.076,1.409,1.409,0,0,1-.685-.462,2.937,2.937,0,0,1-.292-.409c-.125-.2-.281-.5-.433-.8L72.733,90.6c-.116-.227-.238-.451-.337-.61a2.26,2.26,0,0,0-.242-.329,1.185,1.185,0,0,0-.982-.445,2.481,2.481,0,0,0-.473.039,1.366,1.366,0,0,0-.355.115,2.1,2.1,0,0,0-.343.214,3.831,3.831,0,0,0-.664.673c-.381.449-.988,1.222-1.571,2.01l-.852-1.845a2.9,2.9,0,0,0-.323-.546,1.79,1.79,0,0,0-.379-.371,1.6,1.6,0,0,0-1.6-.14,2.072,2.072,0,0,0-.264.141,2.922,2.922,0,0,0-.307.221,4.1,4.1,0,0,0-.4.373,8.126,8.126,0,0,0-.634.77c-.283.381-.656.92-.9,1.241a2.75,2.75,0,0,1-.437.5.731.731,0,0,1-.472.228.476.476,0,0,1-.358-.181,1.125,1.125,0,0,1-.115-.155,1.836,1.836,0,0,1-.155-.3c-.063-.15-.143-.366-.257-.723s-.26-.855-.37-1.171a3.138,3.138,0,0,0-.238-.558,2.475,2.475,0,0,0-.154-.249,1.24,1.24,0,0,0-.128-.155.755.755,0,0,0-.966-.162,1.481,1.481,0,0,0-.239.164,2.031,2.031,0,0,0-.417.485c-.215.311-.535.836-.793,1.226a8.339,8.339,0,0,1-.616.838,3.629,3.629,0,0,1-.42.422,2.5,2.5,0,0,1-1.326.611,3.259,3.259,0,0,1-.758,0,2.028,2.028,0,0,1-.323-.062,1.336,1.336,0,0,1-.676-.428,2.8,2.8,0,0,1-.246-.339,37.992,37.992,0,0,0,2.538-3.5A9.283,9.283,0,0,0,56.2,86.535a9.416,9.416,0,0,0,.385-1.461,7.708,7.708,0,0,0,.115-1.28,3.625,3.625,0,0,0-.1-.932,2.8,2.8,0,0,0-.3-.744,2.35,2.35,0,0,0-.479-.577,2.013,2.013,0,0,0-.6-.363,1.923,1.923,0,0,0-.66-.123,3.03,3.03,0,0,0-.742.087,4.138,4.138,0,0,0-.817.288,5.3,5.3,0,0,0-.9.552,7.325,7.325,0,0,0-.992.9,10.121,10.121,0,0,0-1.034,1.341,11.075,11.075,0,0,0-.916,1.719,7.873,7.873,0,0,0-.515,1.869,14.842,14.842,0,0,0-.166,2.358c0,.36.013.72.037,1.046s.058.618.1.882.089.5.147.734a4.683,4.683,0,0,1-.515.368,2.719,2.719,0,0,1-.426.213,1.872,1.872,0,0,1-.337.1,1.649,1.649,0,0,1-.265.029.792.792,0,0,1-.46-.121.943.943,0,0,1-.262-.251,1.559,1.559,0,0,1-.142-.235,2.853,2.853,0,0,1-.147-.352l-1.242-3.654-3.8.923.781,2.944c-.23.106-.464.2-.616.26a1.4,1.4,0,0,1-.277.081.711.711,0,0,1-.368-.02.457.457,0,0,1-.217-.18,1.117,1.117,0,0,1-.122-.228c-.063-.143-.158-.382-.246-.623l-.745-1.845a2.526,2.526,0,0,0-.211-.405,1.27,1.27,0,0,0-.445-.446.99.99,0,0,0-.262-.1,1.369,1.369,0,0,0-.348-.036,2.282,2.282,0,0,0-.461.054,2.621,2.621,0,0,0-.527.183,4.629,4.629,0,0,0-.767.454q-.641.459-1.237.976a9.539,9.539,0,0,0-.876-.988,3.434,3.434,0,0,0-1.264-.814,3.95,3.95,0,0,0-1.374-.22,4.434,4.434,0,0,0-1.7.3,2.844,2.844,0,0,0-1.2.927,3.628,3.628,0,0,0-.288.446,5.089,5.089,0,0,0-.351.8c-.135.381-.293.909-.409,1.235a2.066,2.066,0,0,1-.252.538.765.765,0,0,1-.707.4,1.008,1.008,0,0,1-.768-.317,1.782,1.782,0,0,1-.188-.236,3.457,3.457,0,0,1-.265-.471q-.217-.456-.4-.928l-1.171-3.016a5.372,5.372,0,0,0-.315-.685,2.38,2.38,0,0,0-.321-.447,1.322,1.322,0,0,0-1.038-.465,2.206,2.206,0,0,0-.405.034,1.507,1.507,0,0,0-.619.262,2.768,2.768,0,0,0-.34.291,5.279,5.279,0,0,0-.657.821c-.366.521-.937,1.395-1.484,2.281l-1.739-5.428q-.1-.307-.22-.6a2.866,2.866,0,0,0-.2-.393,1.9,1.9,0,0,0-.182-.251,1.256,1.256,0,0,0-1.035-.455,2.079,2.079,0,0,0-.282.02,1.024,1.024,0,0,0-.572.263,1.585,1.585,0,0,0-.172.192,2.248,2.248,0,0,0-.261.45c-.127.266-.309.7-.478,1.133l-1.916,4.931L9.222,81.374a5.726,5.726,0,0,0-.322-.915,3.118,3.118,0,0,0-.386-.641,2.08,2.08,0,0,0-.43-.412,1.726,1.726,0,0,0-.509-.25,2.339,2.339,0,0,0-1.963.324,3.124,3.124,0,0,0-.636.582A5.655,5.655,0,0,0,4.3,81.108a14,14,0,0,0-1.28,3.734,10.074,10.074,0,0,0-.18,1.819,2.263,2.263,0,0,0,.014.257.737.737,0,0,0,.22.492.693.693,0,0,0,.548.13.731.731,0,0,0,.478-.316,1.227,1.227,0,0,0,.094-.158,2.73,2.73,0,0,0,.228-.72c.048-.256.1-.642.155-1.007s.1-.706.144-.924a1.836,1.836,0,0,1,.108-.387,1.424,1.424,0,0,1,.08-.169.576.576,0,0,1,.147-.174.374.374,0,0,1,.232-.077.218.218,0,0,1,.22.111.9.9,0,0,1,.038.083,2.067,2.067,0,0,1,.088.289c.053.2.136.551.22.9l2.058,8.693a7.159,7.159,0,0,0,.327,1.037,3.427,3.427,0,0,0,.375.7,2.049,2.049,0,0,0,.4.422,1.638,1.638,0,0,0,1.39.286,1.718,1.718,0,0,0,.711-.354,2.8,2.8,0,0,0,.377-.371,4.472,4.472,0,0,0,.444-.627c.164-.274.348-.626.5-.94s.3-.631.436-.951c.157-.36.349-.8.532-1.2s.359-.761.542-1.116l.079.215c.028.078.059.165.234.67s.492,1.427.719,2.059a13.214,13.214,0,0,0,.5,1.247,4.234,4.234,0,0,0,.373.641,1.76,1.76,0,0,0,1,.765,1.523,1.523,0,0,0,.933-.063,1.963,1.963,0,0,0,.612-.4,3.966,3.966,0,0,0,.382-.417,5.706,5.706,0,0,0,.617-.961c.3-.55.726-1.42,1.121-2.3l1.064,2.448a3.515,3.515,0,0,0,.473.792,2.639,2.639,0,0,0,.6.55,2.478,2.478,0,0,0,.706.324,2.924,2.924,0,0,0,.813.109,4.574,4.574,0,0,0,1.163-.2,7.932,7.932,0,0,0,1.316-.538,10.626,10.626,0,0,0,1.353-.826,9.3,9.3,0,0,0,.817.759,3.4,3.4,0,0,0,1.786.786,7.227,7.227,0,0,0,.739.05,4.774,4.774,0,0,0,.518-.016,3.332,3.332,0,0,0,2.428-1.172,2.929,2.929,0,0,0,.35-.5c.135-.238.3-.574.435-.868s.252-.546.336-.7a.681.681,0,0,1,.184-.236.393.393,0,0,1,.48-.031.713.713,0,0,1,.132.1,1.177,1.177,0,0,1,.182.225,5.485,5.485,0,0,1,.332.613c.157.324.376.8.537,1.111a3.25,3.25,0,0,0,.361.57,3.428,3.428,0,0,0,.256.293,1.8,1.8,0,0,0,1.341.57,3.528,3.528,0,0,0,1.442-.282,3.951,3.951,0,0,0,.86-.5,13.91,13.91,0,0,0,1.316-1.13q.455.559.956,1.077a3.594,3.594,0,0,0,.555.48,1.856,1.856,0,0,0,.737.322,2.176,2.176,0,0,0,.413.037,4.015,4.015,0,0,0,1.066-.193,11.021,11.021,0,0,0,2.89-1.474A3.9,3.9,0,0,0,50,95.28Zm3.83-12.231a.36.36,0,0,1,.237.168.781.781,0,0,1,.092.246,1.893,1.893,0,0,1,.036.248c.01.11.015.253.015.4a8.155,8.155,0,0,1-.117,1.13q-.106.616-.269,1.22a7.667,7.667,0,0,1-.358,1.03,17.087,17.087,0,0,1-1.119,2.166,4.767,4.767,0,0,1-.321.465,1.7,1.7,0,0,1-.166.187c-.112.1-.179.149-.25.1a.334.334,0,0,1-.065-.14q-.02-.076-.034-.154a3.32,3.32,0,0,1-.041-.363q-.022-.387-.028-.775a9.609,9.609,0,0,1,.155-1.4c.1-.533.239-1.165.386-1.688a11.238,11.238,0,0,1,.428-1.26,6.41,6.41,0,0,1,.356-.736,3.1,3.1,0,0,1,.274-.4.953.953,0,0,1,.707-.434A.619.619,0,0,1,53.834,83.049Zm25.194,8.694a1.816,1.816,0,0,1,.4-.779,1.289,1.289,0,0,1,1.24-.478.879.879,0,0,1,.208.076.7.7,0,0,1,.284.991,1.518,1.518,0,0,1-.131.242,2.459,2.459,0,0,1-.239.3,4.252,4.252,0,0,1-.484.446c-.241.195-.586.448-.94.686a1.892,1.892,0,0,1-.356-.718,1.816,1.816,0,0,1,.015-.766Zm-46.2-.627a1.1,1.1,0,0,1,.718,1.385,1.06,1.06,0,0,1-.39.55,1.115,1.115,0,0,1-1.007.156,1.154,1.154,0,0,1-.738-.743,1.05,1.05,0,0,1,.416-1.205,1.183,1.183,0,0,1,1-.142ZM58.86,84.11a2.044,2.044,0,0,0-1.645.839,1.913,1.913,0,0,0-.28,1.735,2.03,2.03,0,0,0,.291.56,2.106,2.106,0,0,0,.465.459A1.988,1.988,0,1,0,58.86,84.11Zm36.2,6.363a1.377,1.377,0,0,0,.705-.518,1.419,1.419,0,0,0,.19-1.235,1.371,1.371,0,0,0-.5-.7,1.4,1.4,0,0,0-2.171,1.548,1.374,1.374,0,0,0,.5.7,1.414,1.414,0,0,0,1.275.2Zm-1.507-1.7a1.172,1.172,0,0,1,.158-.326,1.105,1.105,0,0,1,.25-.255,1.106,1.106,0,0,1,1.567.255,1.237,1.237,0,0,1,.158,1.061,1.105,1.105,0,0,1-1.414.745,1.1,1.1,0,0,1-.562-.416,1.245,1.245,0,0,1-.157-1.064Zm1.056.477.419.7h.27l-.453-.71a.454.454,0,0,0,.361-.213.518.518,0,0,0-.018-.5c-.167-.2-.3-.172-.491-.185h-.606V89.95h.241v-.7h.277Zm-.277-.706h.328c.113,0,.281.005.336.158A.258.258,0,0,1,94.9,89a.3.3,0,0,1-.128.038c-.119.013-.3.006-.444.008v-.5Z" transform="translate(13.57 -8.69)" fill="#fff" fill-rule="evenodd"/>
      </g>
    </g>
    <g id="Group_1706" data-name="Group 1706" transform="translate(-483 163)">
      <g transform="matrix(1, 0, 0, 1, 1068, 179)" filter="url(#Rectangle_46)">
        <g id="Rectangle_46-2" data-name="Rectangle 46" transform="translate(109 8)" fill="#ae4541" stroke="#fff" stroke-width="1">
          <rect width="26" height="26" rx="13" stroke="none"/>
          <rect x="0.5" y="0.5" width="25" height="25" rx="12.5" fill="none"/>
        </g>
      </g>
      <path id="Icon_material-mode-edit" data-name="Icon material-mode-edit" d="M4.5,13.743v2.433H6.933L14.109,9,11.676,6.568ZM15.99,7.119a.646.646,0,0,0,0-.915L14.472,4.686a.646.646,0,0,0-.915,0L12.37,5.873,14.8,8.306Z" transform="translate(1179.5 189.504)" fill="#fff"/>
    </g>
  </g>
</svg>
