<svg xmlns="http://www.w3.org/2000/svg" width="20" height="18.996" viewBox="0 0 20 18.996">
  <path id="Path_3647" data-name="Path 3647" d="M1115.23,340.291v-4.009a.768.768,0,0,1,1.53-.105l.01.105v4.009h4.78a4.531,4.531,0,0,1,4.45,4.379v5.255a4.532,4.532,0,0,1-4.23,4.57l-.21.005h-11.12a4.516,4.516,0,0,1-4.44-4.379v-5.245a4.533,4.533,0,0,1,4.22-4.58h5.01v6.4l-1.6-1.652a.755.755,0,0,0-1.09,0,.809.809,0,0,0-.22.568.779.779,0,0,0,.14.459l.08.1,2.91,3.015a.735.735,0,0,0,.55.237.755.755,0,0,0,.47-.166l.07-.071,2.91-3.015a.817.817,0,0,0,0-1.126.75.75,0,0,0-1-.077l-.09.077-1.59,1.652v-6.4Z" transform="translate(-1106 -335.504)" fill="#9f1814"/>
</svg>
