<svg xmlns="http://www.w3.org/2000/svg" width="15.931" height="15.93" viewBox="0 0 15.931 15.93">
  <g id="Group_6719" data-name="Group 6719" transform="translate(-13376.069 3908)">
    <path id="Path_3612" data-name="Path 3612" d="M1166.516,279h6.906a4.368,4.368,0,0,1,4.508,4.715v6.508a4.365,4.365,0,0,1-4.508,4.707h-6.906a4.371,4.371,0,0,1-4.516-4.707v-6.508A4.374,4.374,0,0,1,1166.516,279Z" transform="translate(12214.069 -4187)" fill="#fff" fill-rule="evenodd"/>
    <path id="Path_3612-2" data-name="Path 3612" d="M1166.516,279h6.906a4.368,4.368,0,0,1,4.508,4.715v6.508a4.365,4.365,0,0,1-4.508,4.707h-6.906a4.371,4.371,0,0,1-4.516-4.707v-6.508A4.374,4.374,0,0,1,1166.516,279Zm2.995,10.347,3.783-3.783a.7.7,0,1,0-.988-.988l-3.289,3.29-1.394-1.394a.7.7,0,1,0-.988.988l1.9,1.888A.7.7,0,0,0,1169.511,289.347Z" transform="translate(12214.069 -4187)" fill="#9f1814" fill-rule="evenodd"/>
  </g>
</svg>
